<?xml version="1.0" encoding="utf-8"?>
<!-- Generator: Adobe Illustrator 21.1.0, SVG Export Plug-In . SVG Version: 6.00 Build 0)  -->
<svg version="1.1" id="Layer_1" xmlns="http://www.w3.org/2000/svg" xmlns:xlink="http://www.w3.org/1999/xlink" x="0px" y="0px"
	 viewBox="0 0 841.9 158.1" style="enable-background:new 0 0 841.9 158.1;" xml:space="preserve">
<style type="text/css">
	.st0{fill:#2C3E50;}
	.st1{fill:#FFFFFF;}
</style>
<g>
	<path class="st0" d="M73.4,39h11.2v11.2H73.4V39z M73.4,118.9V58.8h11.2v60.1H73.4z"/>
	<path class="st0" d="M108.4,58.8h34.2c3.7,0,6.9,1.3,9.5,3.9s3.9,5.8,3.9,9.5v33.2c0,3.7-1.3,6.9-3.9,9.5c-2.6,2.6-5.8,3.9-9.5,3.9
		h-34.2c-3.7,0-6.9-1.3-9.5-3.9c-2.6-2.6-3.9-5.8-3.9-9.5V72.2c0-3.7,1.3-6.9,3.9-9.5C101.5,60.1,104.6,58.8,108.4,58.8z
		 M142.6,69.9h-34.2c-0.6,0-1.2,0.2-1.6,0.7c-0.5,0.5-0.7,1-0.7,1.6v33.2c0,0.6,0.2,1.2,0.7,1.6c0.4,0.5,1,0.7,1.6,0.7h34.2
		c0.6,0,1.2-0.2,1.6-0.7c0.4-0.4,0.7-1,0.7-1.6V72.2c0-0.6-0.2-1.2-0.7-1.6C143.7,70.2,143.2,69.9,142.6,69.9z"/>
	<path class="st1" d="M237.7,78.8c3,2.6,4.5,5.9,4.5,10v16.7c0,3.7-1.3,6.9-3.9,9.5c-2.6,2.6-5.8,3.9-9.5,3.9h-61.2V44.2h58.1
		c3.7,0,6.9,1.3,9.5,3.9c2.6,2.6,3.9,5.8,3.9,9.5v15.2C239,74.9,238.6,76.8,237.7,78.8z M225.5,55.4H181c-0.6,0-1.2,0.2-1.6,0.7
		c-0.5,0.5-0.7,1-0.7,1.6v15.2c0,0.6,0.2,1.2,0.7,1.6c0.4,0.5,1,0.7,1.6,0.7h44.6c0.6,0,1.2-0.2,1.6-0.7c0.4-0.4,0.7-1,0.7-1.6V57.7
		c0-0.6-0.2-1.2-0.7-1.6C226.7,55.7,226.2,55.4,225.5,55.4z M230.9,105.4V88.7c0-0.6-0.2-1.2-0.7-1.6s-1-0.7-1.6-0.7H181
		c-0.6,0-1.2,0.2-1.6,0.7c-0.5,0.5-0.7,1-0.7,1.6v16.7c0,0.6,0.2,1.2,0.7,1.6c0.4,0.5,1,0.7,1.6,0.7h47.7c0.6,0,1.2-0.2,1.6-0.7
		C230.7,106.6,230.9,106,230.9,105.4z"/>
	<path class="st1" d="M316.7,105.4V44.2h11.2v61.2c0,3.7-1.3,6.9-3.9,9.5s-5.8,3.9-9.5,3.9h-47.7c-3.7,0-6.9-1.3-9.5-3.9
		c-2.6-2.6-3.9-5.8-3.9-9.5V44.2h11.2v61.2c0,0.6,0.2,1.2,0.7,1.6c0.4,0.5,1,0.7,1.6,0.7h47.7c0.6,0,1.2-0.2,1.6-0.7
		C316.5,106.6,316.7,106,316.7,105.4z"/>
	<path class="st1" d="M339.4,118.9V44.2h11.2v74.7H339.4z"/>
	<path class="st1" d="M362.2,118.9V44.1h11.2v63.6h63.5v11.2H362.2z"/>
	<path class="st1" d="M443.1,44.2h61.2c3.7,0,6.9,1.3,9.5,3.9c2.6,2.6,3.9,5.8,3.9,9.5v47.7c0,3.7-1.3,6.9-3.9,9.5
		c-2.6,2.6-5.8,3.9-9.5,3.9h-61.2L443.1,44.2L443.1,44.2z M506.5,105.4V57.7c0-0.6-0.2-1.2-0.7-1.6s-1-0.7-1.6-0.7h-47.7
		c-0.6,0-1.2,0.2-1.6,0.7c-0.5,0.5-0.7,1-0.7,1.6v47.7c0,0.6,0.2,1.2,0.7,1.6c0.4,0.5,1,0.7,1.6,0.7h47.7c0.6,0,1.2-0.2,1.6-0.7
		C506.3,106.6,506.5,106,506.5,105.4z"/>
	<path class="st1" d="M598,44.2v11.2h-57.2v20.5h46v11.2h-46v20.5H598v11.2h-68.4V44.1L598,44.2L598,44.2z"/>
	<path class="st1" d="M683.3,57.8v21c0,3.7-1.3,6.8-3.9,9.5c-2.6,2.7-5.8,4-9.5,4h-7.6l21,25.1v1.6H670l-22.4-26.6h-25.5
		c-0.6,0-1.3-0.1-2.3-0.2v26.9h-11.2V44.5h61.2c3.7,0,6.9,1.3,9.5,4C682,51,683.3,54.2,683.3,57.8z M622.2,81h47.7
		c0.6,0,1.2-0.2,1.6-0.7c0.4-0.4,0.7-1,0.7-1.6V57.8c0-0.6-0.2-1.2-0.7-1.6s-1-0.7-1.6-0.7h-47.7c-0.6,0-1.2,0.2-1.6,0.7
		c-0.5,0.5-0.7,1-0.7,1.6v21c0,0.6,0.2,1.2,0.7,1.6C621,80.8,621.5,81,622.2,81z"/>
	<path class="st1" d="M768.5,57.7v4.4h-11.2v-4.4c0-0.6-0.2-1.2-0.7-1.6s-1-0.7-1.6-0.7h-47.7c-0.6,0-1.2,0.2-1.6,0.7
		c-0.5,0.5-0.7,1-0.7,1.6v16c0,0.6,0.2,1.2,0.7,1.6c0.4,0.5,1,0.7,1.6,0.7H755c3.7,0,6.9,1.3,9.5,3.9s3.9,5.8,3.9,9.5v16
		c0,3.7-1.3,6.9-3.9,9.5c-2.6,2.6-5.8,3.9-9.5,3.9h-47.7c-3.7,0-6.9-1.3-9.5-3.9s-3.9-5.8-3.9-9.5V101H705v4.4
		c0,0.6,0.2,1.2,0.7,1.6c0.4,0.5,1,0.7,1.6,0.7H755c0.6,0,1.2-0.2,1.6-0.7c0.5-0.4,0.7-1,0.7-1.6v-16c0-0.6-0.2-1.2-0.7-1.6
		s-1-0.7-1.6-0.7h-47.7c-3.7,0-6.9-1.3-9.5-3.9s-3.9-5.8-3.9-9.5v-16c0-3.7,1.3-6.9,3.9-9.5c2.6-2.6,5.8-3.9,9.5-3.9H755
		c3.7,0,6.9,1.3,9.5,3.9C767.1,50.8,768.5,54,768.5,57.7z"/>
</g>
</svg>
