<?xml version="1.0" encoding="utf-8"?>
<!-- Generator: Adobe Illustrator 21.1.0, SVG Export Plug-In . SVG Version: 6.00 Build 0)  -->
<svg version="1.1" id="Layer_1" xmlns="http://www.w3.org/2000/svg" xmlns:xlink="http://www.w3.org/1999/xlink" x="0px" y="0px"
	 viewBox="0 0 200 200" style="enable-background:new 0 0 200 200;" xml:space="preserve">
<style type="text/css">
	.st0{fill:none;stroke:#424242;stroke-width:6.566;stroke-miterlimit:10;}
	.st1{fill:#424242;}
	.st2{fill:none;stroke:#424242;stroke-width:6.732;stroke-linejoin:round;stroke-miterlimit:10;}
</style>
<g>
	<g>
		<g>
			<path class="st1" d="M196.3,6.6c-0.2-1.7-1.5-3-3.2-3.2c-15.1-1.9-30.7-0.2-45,4.7c-14.4,4.9-27.7,13.2-38.4,24L85.1,56.6
				l-35.4,4.6c-0.8,0.1-1.6,0.5-2.1,1L13.4,96.4c-1,1-1.3,2.4-0.9,3.7c0.4,1.3,1.5,2.3,2.8,2.5l25.8,4.8l5.1,5.1l-10.8,5.8
				c-1,0.6-1.7,1.6-1.9,2.7s0.2,2.3,1,3.1l40.9,40.9c0.7,0.7,1.6,1.1,2.6,1.1c0.2,0,0.4,0,0.5,0c1.1-0.2,2.2-0.9,2.7-1.9l5.8-10.8
				l5.1,5.1l4.8,25.8c0.2,1.3,1.2,2.4,2.5,2.8c0.4,0.1,0.7,0.2,1.1,0.2c1,0,1.9-0.4,2.6-1.1l34.1-34.1c0.6-0.6,0.9-1.3,1-2.1
				l4.6-35.4L167.6,90c10.7-10.7,19-24,24-38.4C196.5,37.2,198.1,21.7,196.3,6.6z M41.7,100l-18.2-3.4l28.3-28.3l24.7-3.2L41.7,100z
				 M77.3,156.4l-34-34l8.4-4.5L81.8,148L77.3,156.4z M131.3,147.8L103,176.1l-3.4-18.2l34.9-34.9L131.3,147.8z M162.4,84.8
				l-66.7,66.7l-47.5-47.5l66.7-66.7c9.7-9.7,21.6-17.2,34.5-21.8c1.7,8.6,5.9,16.5,12.1,22.8c6.2,6.2,14.2,10.4,22.8,12.1
				C179.6,63.2,172.1,75.1,162.4,84.8z M186.4,43.3C179,42,172,38.4,166.6,33c-5.4-5.4-9-12.3-10.2-19.8c10.7-2.9,21.9-3.9,32.9-2.8
				C190.3,21.4,189.3,32.6,186.4,43.3z"/>
			<path class="st1" d="M111.2,56.8c-8.7,8.7-8.7,22.9,0,31.6c4.4,4.4,10.1,6.5,15.8,6.5c5.7,0,11.4-2.2,15.8-6.5h0
				c8.7-8.7,8.7-22.9,0-31.6C134.1,48.1,120,48.1,111.2,56.8z M137.6,83.2c-5.8,5.8-15.3,5.8-21.2,0c-5.8-5.8-5.8-15.3,0-21.2
				c2.9-2.9,6.8-4.4,10.6-4.4c3.8,0,7.7,1.5,10.6,4.4C143.5,67.9,143.5,77.4,137.6,83.2z"/>
			<path class="st1" d="M50.9,149.4c-1.4-1.4-3.8-1.4-5.2,0L14.1,181c-1.4,1.4-1.4,3.8,0,5.2c0.7,0.7,1.7,1.1,2.6,1.1
				c0.9,0,1.9-0.4,2.6-1.1l31.6-31.6C52.3,153.2,52.3,150.9,50.9,149.4z"/>
			<path class="st1" d="M55.8,159.5l-14.2,14.2c-1.4,1.4-1.4,3.8,0,5.2c0.7,0.7,1.7,1.1,2.6,1.1c0.9,0,1.9-0.4,2.6-1.1L61,164.7
				c1.4-1.4,1.4-3.8,0-5.2C59.5,158.1,57.2,158.1,55.8,159.5z"/>
			<path class="st1" d="M36.6,180.2c-1.5,0-2.9,1-3.5,2.4c-0.5,1.5,0,3.2,1.2,4.1c1.2,1,3.1,1,4.4,0.1c1.4-1,2-2.9,1.3-4.4
				C39.4,181.2,38,180.2,36.6,180.2z"/>
			<path class="st1" d="M39.9,182.5C40,182.7,39.9,182.3,39.9,182.5L39.9,182.5z"/>
			<path class="st1" d="M26.1,189.1l-2,2c-1.4,1.4-1.4,3.8,0,5.2c0.7,0.7,1.7,1.1,2.6,1.1c0.9,0,1.9-0.4,2.6-1.1l2-2
				c1.4-1.4,1.4-3.8,0-5.2C29.9,187.7,27.6,187.7,26.1,189.1z"/>
			<path class="st1" d="M23.5,156.7c-1.4-1.4-3.8-1.4-5.2,0L4.1,171c-1.4,1.4-1.4,3.8,0,5.2c0.7,0.7,1.7,1.1,2.6,1.1
				s1.9-0.4,2.6-1.1l14.2-14.2C24.9,160.5,24.9,158.2,23.5,156.7z"/>
			<path class="st1" d="M29.4,155.3c1.5-0.4,2.6-1.7,2.8-3.2c0.2-1.5-0.7-3-2-3.6c-1.4-0.7-3.2-0.4-4.3,0.7
				c-1.2,1.2-1.4,3.2-0.4,4.6c0,0-0.1-0.1,0,0c0.1,0.1,0,0.1,0,0C26.3,155.1,27.9,155.7,29.4,155.3z"/>
			<path class="st1" d="M38.9,146.5l2-2c1.4-1.4,1.4-3.8,0-5.2c-1.4-1.4-3.8-1.4-5.2,0l-2,2c-1.4,1.4-1.4,3.8,0,5.2
				c0.7,0.7,1.7,1.1,2.6,1.1C37.2,147.6,38.2,147.3,38.9,146.5z"/>
		</g>
	</g>
</g>
</svg>
