<?xml version="1.0" encoding="utf-8"?>
<!-- Generator: Adobe Illustrator 21.1.0, SVG Export Plug-In . SVG Version: 6.00 Build 0)  -->
<svg version="1.1" id="Layer_1" xmlns="http://www.w3.org/2000/svg" xmlns:xlink="http://www.w3.org/1999/xlink" x="0px" y="0px"
	 viewBox="0 0 200 200" style="enable-background:new 0 0 200 200;" xml:space="preserve">
<style type="text/css">
	.st0{fill:none;stroke:#424242;stroke-width:6.566;stroke-miterlimit:10;}
	.st1{fill:#424242;}
	.st2{fill:#231F20;}
	.st3{fill:none;stroke:#424242;stroke-width:6.732;stroke-linejoin:round;stroke-miterlimit:10;}
</style>
<g>
	<path class="st0" d="M192.6,89.7c-0.3-2.6-3.4-4.6-6-4.6c-8.5,0-16.1-5-19.3-12.8c-3.2-7.9-1.2-17.2,5.2-23.1c2-1.8,2.2-4.9,0.6-7
		c-4.4-5.6-9.3-10.6-14.8-14.9c-2.1-1.7-5.2-1.5-7.1,0.6c-5.6,6.2-15.5,8.4-23.3,5.2c-8-3.4-13.1-11.5-12.6-20.2
		c0.2-2.7-1.8-5.1-4.6-5.4c-7-0.8-14-0.8-21-0.1c-2.7,0.3-4.7,2.6-4.6,5.3c0.3,8.6-4.8,16.6-12.8,19.9c-7.6,3.1-17.5,0.8-23.1-5.3
		c-1.8-2-4.9-2.3-7-0.6c-5.6,4.4-10.7,9.4-15.1,14.9c-1.7,2.1-1.5,5.2,0.6,7.1c6.5,5.9,8.6,15.2,5.2,23.3
		c-3.2,7.7-11.2,12.6-20.3,12.6c-3-0.1-5.1,1.9-5.4,4.6c-0.8,7-0.8,14.1,0,21.2c0.3,2.6,3.4,4.6,6.1,4.6c8.1-0.2,15.9,4.8,19.2,12.8
		c3.3,7.9,1.2,17.2-5.2,23.1c-2,1.8-2.2,4.9-0.6,7c4.3,5.5,9.3,10.5,14.7,14.9c2.1,1.7,5.2,1.5,7.1-0.6c5.6-6.2,15.6-8.5,23.2-5.2
		c8,3.4,13.1,11.5,12.6,20.2c-0.2,2.7,1.8,5.1,4.6,5.4c3.6,0.4,7.1,0.6,10.7,0.6c3.4,0,6.8-0.2,10.2-0.6c2.7-0.3,4.7-2.6,4.6-5.3
		c-0.3-8.6,4.8-16.6,12.8-19.9c7.7-3.1,17.5-0.8,23.1,5.3c1.8,2,4.9,2.2,7,0.6c5.6-4.4,10.6-9.4,15.1-14.9c1.7-2.1,1.5-5.2-0.6-7.1
		c-6.5-5.9-8.6-15.2-5.2-23.3c3.2-7.6,10.8-12.6,19.1-12.6l1.2,0c2.7,0.2,5.1-1.8,5.5-4.6C193.4,103.8,193.4,96.7,192.6,89.7z"/>
	<path class="st1" d="M100,153.7c-29.7,0-53.7-24.1-53.7-53.7S70.3,46.3,100,46.3s53.7,24.1,53.7,53.7c0,10.1-2.8,19.5-7.6,27.6
		L122.6,104c1.7-4,2.6-8.4,2.6-12.9c0-8.8-3.4-17.1-9.7-23.3c-6.2-6.2-14.5-9.6-23.3-9.6c-2.9,0-5.9,0.4-8.7,1.2
		c-1.2,0.3-2.3,1.4-2.6,2.6c-0.3,1.3,0,2.6,1,3.6c0,0,11.6,11.7,15.5,15.6c0.4,0.4,0.4,1.4,0.3,1.7l0,0.3c-0.4,4.3-1.1,9.4-1.8,11.4
		c-0.1,0.1-0.2,0.2-0.2,0.2c-0.1,0.1-0.2,0.2-0.3,0.3c-2,0.6-7.2,1.4-11.5,1.8l0,0l-0.2,0c0,0-0.1,0-0.2,0c-0.5,0-1.2-0.1-1.8-0.8
		c-4-4-15.2-15.1-15.2-15.1c-1-1-2-1.2-2.7-1.2c-1.6,0-3,1.2-3.5,2.8c-3.1,11.4,0.2,23.6,8.5,31.9c6.2,6.2,14.5,9.6,23.3,9.6
		c4.5,0,8.8-0.9,12.9-2.6l23.8,23.8C120.6,150.6,110.7,153.7,100,153.7z"/>
</g>
</svg>
