<?xml version="1.0" encoding="utf-8"?>
<!-- Generator: Adobe Illustrator 21.1.0, SVG Export Plug-In . SVG Version: 6.00 Build 0)  -->
<svg version="1.1" id="Layer_1" xmlns="http://www.w3.org/2000/svg" xmlns:xlink="http://www.w3.org/1999/xlink" x="0px" y="0px"
	 viewBox="0 0 200 200" style="enable-background:new 0 0 200 200;" xml:space="preserve">
<style type="text/css">
	.st0{fill:none;stroke:#424242;stroke-width:6.566;stroke-miterlimit:10;}
	.st1{fill:#424242;}
	.st2{fill:none;stroke:#424242;stroke-width:6.732;stroke-linejoin:round;stroke-miterlimit:10;}
</style>
<g>
	<path class="st1" d="M100,3.5C65.2,3.5,36.8,32,36.8,66.8c0,18.2,8,35.7,21.4,47.5c10,10,9.1,31.4,8.9,31.6c0,1.1,0.2,2,1.1,3
		c0.7,0.7,1.8,1.1,2.7,1.1h58c1.1,0,2-0.5,2.7-1.1c0.7-0.7,1.1-1.8,1.1-3c0-0.2-1.1-21.6,8.9-31.6c0.2-0.2,0.5-0.5,0.7-0.7
		c13.2-12.1,20.9-29.1,20.9-46.9C163.2,32,134.8,3.5,100,3.5z M136.4,108.4c-0.2,0.2-0.7,0.7-0.7,0.9c-8.9,9.6-10.5,25.3-10.7,32.8
		H74.7c-0.2-7.5-1.8-23.9-11.4-33.7C51.3,98,44.3,82.7,44.3,66.6c0-30.7,24.8-55.5,55.5-55.5s55.5,24.8,55.5,55.5
		C155.3,82.7,148.5,98,136.4,108.4z"/>
	<path class="st1" d="M99.8,19.7c-2,0-3.9,1.8-3.9,3.9c0,2,1.8,3.9,3.9,3.9c23,0,41.4,18.7,41.4,41.4c0,2,1.8,3.9,3.9,3.9
		c2,0,3.9-1.8,3.9-3.9C149.1,41.8,127.1,19.7,99.8,19.7z"/>
	<path class="st1" d="M125,154.4H74.5c-5.2,0-9.6,4.3-9.6,9.6c0,5.2,4.3,9.6,9.6,9.6h50.3c5.5-0.2,9.8-4.3,9.8-9.6
		C134.6,158.7,130.3,154.4,125,154.4z M125,165.5H74.5c-0.9,0-1.8-0.7-1.8-1.8s0.7-1.8,1.8-1.8h50.3c0.9,0,1.8,0.7,1.8,1.8
		S125.9,165.5,125,165.5z"/>
	<path class="st1" d="M117.5,177.3H82c-5.2,0-9.6,4.3-9.6,9.6s4.3,9.6,9.6,9.6h35.5c5.2,0,9.6-4.3,9.6-9.6
		C127.1,181.4,122.7,177.3,117.5,177.3z M117.5,188.5H82c-0.9,0-1.8-0.7-1.8-1.8c0-1.1,0.7-1.8,1.8-1.8h35.5c0.9,0,1.8,0.7,1.8,1.8
		C119.3,187.8,118.4,188.5,117.5,188.5z"/>
</g>
</svg>
