<?xml version="1.0" encoding="utf-8"?>
<!-- Generator: Adobe Illustrator 21.1.0, SVG Export Plug-In . SVG Version: 6.00 Build 0)  -->
<svg version="1.1" id="Layer_1" xmlns="http://www.w3.org/2000/svg" xmlns:xlink="http://www.w3.org/1999/xlink" x="0px" y="0px"
	 viewBox="0 0 200 200" style="enable-background:new 0 0 200 200;" xml:space="preserve">
<style type="text/css">
	.st0{fill:none;stroke:#424242;stroke-width:6.566;stroke-miterlimit:10;}
	.st1{fill:#424242;}
	.st2{fill:none;stroke:#424242;stroke-width:6.732;stroke-linejoin:round;stroke-miterlimit:10;}
</style>
<g>
	<path class="st2" d="M149.9,4.9H44.2c-11.6,0-21.1,9.5-21.1,21.1v169.1l74-31.7l74,31.7V26C171,14.4,161.5,4.9,149.9,4.9z"/>
	<g>
		<path class="st1" d="M58.7,32.9h11.2v11.2H58.7V32.9z M58.7,112.8V52.6h11.2v60.1H58.7z"/>
		<path class="st1" d="M93.6,52.6h34.2c3.7,0,6.9,1.3,9.5,3.9c2.6,2.6,3.9,5.8,3.9,9.5v33.2c0,3.7-1.3,6.9-3.9,9.5
			c-2.6,2.6-5.8,3.9-9.5,3.9H93.6c-3.7,0-6.9-1.3-9.5-3.9c-2.6-2.6-3.9-5.8-3.9-9.5V66.1c0-3.7,1.3-6.9,3.9-9.5
			C86.7,53.9,89.9,52.6,93.6,52.6z M127.8,63.8H93.6c-0.6,0-1.2,0.2-1.6,0.7c-0.5,0.5-0.7,1-0.7,1.6v33.2c0,0.6,0.2,1.2,0.7,1.6
			c0.4,0.5,1,0.7,1.6,0.7h34.2c0.6,0,1.2-0.2,1.6-0.7c0.4-0.4,0.7-1,0.7-1.6V66.1c0-0.6-0.2-1.2-0.7-1.6
			C129,64.1,128.5,63.8,127.8,63.8z"/>
	</g>
</g>
</svg>
