<?xml version="1.0" encoding="utf-8"?>
<!-- Generator: Adobe Illustrator 21.1.0, SVG Export Plug-In . SVG Version: 6.00 Build 0)  -->
<svg version="1.1" id="Layer_1" xmlns="http://www.w3.org/2000/svg" xmlns:xlink="http://www.w3.org/1999/xlink" x="0px" y="0px"
	 viewBox="0 0 515 509.1" style="enable-background:new 0 0 515 509.1;" xml:space="preserve">
<style type="text/css">
	.st0{fill:#FFFFFF;}
</style>
<g>
	<polyline class="st0" points="280.4,35.9 279.8,35.6 279.9,35.3 280.5,35.6 280.4,35.9 	"/>
	<path class="st0" d="M276.3,32.7c0.4,0.6,0,1-0.7,0.8c-1.1-0.3-1.8-1.5-1.3-1.8c0.1-0.1,0.2-0.1,0.3-0.1
		C275.3,31.6,276.1,32.2,276.3,32.7"/>
	<polyline class="st0" points="272.4,33.1 272,32.9 272.1,32.6 272.5,32.9 272.4,33.1 	"/>
	<polyline class="st0" points="271.2,39.4 270.8,39.1 271,38.8 271.4,39.1 271.2,39.4 	"/>
	<path class="st0" d="M268.8,36.6c0.1,0.6-0.6,0.9-1.2,0.5c-0.6-0.4-0.7-1.2,0-1.3c0,0,0.1,0,0.2,0
		C268.4,35.9,268.8,36.3,268.8,36.6"/>
	<path class="st0" d="M265.3,35.4c0.1,0.6-0.7,0.9-1.3,0.5c-0.6-0.4-0.4-1.2,0.2-1.3c0,0,0.1,0,0.1,0
		C265,34.6,265.3,35.1,265.3,35.4"/>
	<path class="st0" d="M261.8,29.3c0.1,0.6-0.7,0.9-1.2,0.4c-0.5-0.4-0.3-1.1,0.3-1.2c0,0,0.1,0,0.1,0
		C261.5,28.5,261.8,29,261.8,29.3"/>
	<polyline class="st0" points="258.9,30.5 258.6,30.1 258.9,29.8 259.3,30.1 258.9,30.5 	"/>
	<polyline class="st0" points="256.6,32.8 256.4,32.6 256.6,32.4 256.8,32.6 256.6,32.8 	"/>
	<polyline class="st0" points="255,28 254.7,27.6 255.2,27.2 255.5,27.6 255,28 	"/>
	<polyline class="st0" points="252.4,27.6 252.3,27.5 252.5,27.3 252.6,27.5 252.4,27.6 	"/>
	<polyline class="st0" points="246.3,33.4 246.1,33.1 246.6,32.8 246.8,33.1 246.3,33.4 	"/>
	<polyline class="st0" points="242.1,37.4 241.9,37 242.4,36.6 242.7,37 242.1,37.4 	"/>
	<path class="st0" d="M245.2,30.8c-0.5,0.8-1.7,1.1-1.9,0.5c-0.1-0.5,0.7-1.4,1.5-1.4C245.5,29.8,245.4,30.4,245.2,30.8"/>
	<polyline class="st0" points="244.6,27.9 244.5,27.7 244.8,27.5 244.9,27.7 244.6,27.9 	"/>
	<path class="st0" d="M241.2,30.2c-0.7,0.8-2,1.1-2,0.5c0-0.5,1-1.4,1.9-1.4C241.7,29.3,241.5,29.8,241.2,30.2"/>
	<polyline class="st0" points="237.5,31.2 237.4,31 237.9,30.8 237.9,31 237.5,31.2 	"/>
	<polyline class="st0" points="232.6,34.4 232.6,34.1 233.1,33.8 233.2,34.1 232.6,34.4 	"/>
	<path class="st0" d="M231.2,34.2c-0.6,0.7-1.6,0.8-1.5,0.4c0-0.4,0.9-1.1,1.6-1.1C231.7,33.5,231.5,33.9,231.2,34.2"/>
	<path class="st0" d="M233.2,30.2c-0.7,0.6-1.8,0.9-1.7,0.5c0-0.4,1.3-1.3,2-1.3C233.9,29.4,233.6,29.8,233.2,30.2
		C233.2,30.1,233.2,30.1,233.2,30.2"/>
	<polyline class="st0" points="226.8,32.3 226.9,31.8 227.9,31.4 227.8,31.8 226.8,32.3 	"/>
	<polyline class="st0" points="231,28.2 231.3,27.7 232.5,27.3 232.1,27.7 231,28.2 	"/>
	<polyline class="st0" points="229.5,28 229.6,27.9 229.9,27.8 229.8,27.9 229.5,28 	"/>
	<polyline class="st0" points="230.7,26.4 230.9,26.3 231.3,26.1 231.2,26.3 230.7,26.4 	"/>
	<polyline class="st0" points="215.7,33.8 215.8,33.6 216.3,33.3 216.2,33.6 215.7,33.8 	"/>
	<polyline class="st0" points="220.8,29.2 221.2,28.8 222.3,28.4 221.8,28.8 220.8,29.2 	"/>
	<path class="st0" d="M221.8,28.3c-1,0.5-2,0.7-1.9,0.5c0.1-0.3,2.2-1.2,2.9-1.2c0.1,0,0.2,0,0,0.1C222.7,27.8,222.3,28,221.8,28.3"
		/>
	<polyline class="st0" points="217,29.8 217.4,29.5 218.3,29.1 217.9,29.5 217,29.8 	"/>
	<path class="st0" d="M223.2,26.6c-0.7,0.3-1.9,0.7-2,0.5c0.1-0.3,2.5-1.1,3.2-1.2c0,0,0,0,0.1,0C224.5,26.1,223.6,26.4,223.2,26.6"
		/>
	<polyline class="st0" points="209.4,32.2 210.1,31.6 211.7,31 211,31.6 209.4,32.2 	"/>
	<path class="st0" d="M206.5,33.4c-0.9,0.5-2,0.8-1.9,0.6c0.2-0.4,2.1-1.3,2.8-1.4c0.1,0,0.2,0,0,0.3
		C207.1,33.1,206.6,33.3,206.5,33.4"/>
	<path class="st0" d="M217.5,27.1c-0.7,0.2-1.7,0.6-1.9,0.5c0.1-0.2,2.6-1.1,3.2-1.1c0,0,0,0,0,0C218.8,26.7,217.9,27,217.5,27.1"/>
	<polyline class="st0" points="212.2,28.6 212.8,28.2 213.8,28 213.3,28.2 212.2,28.6 	"/>
	<polyline class="st0" points="197.9,34.8 198.2,34.5 198.8,34.3 198.5,34.5 197.9,34.8 	"/>
	<polyline class="st0" points="208.5,28.9 209.3,28.5 210.7,28.1 209.9,28.5 208.5,28.9 	"/>
	<polyline class="st0" points="208.6,28.4 209.7,28 211.4,27.5 210.3,28 208.6,28.4 	"/>
	<path class="st0" d="M192.7,34.2c-0.8,0.4-2.2,0.9-2.4,0.8c-0.1-0.3,3.2-1.7,4.1-1.8c0,0,0,0,0.1,0
		C194.5,33.4,192.9,34.1,192.7,34.2"/>
	<path class="st0" d="M195.3,32c-0.6,0.2-1.5,0.6-1.7,0.5c0,0,0,0,0,0c0.2-0.3,2.6-1.2,3.1-1.2c0,0,0,0,0,0c0,0,0,0,0,0
		C196.5,31.4,195.7,31.8,195.3,32"/>
	<polyline class="st0" points="180,39.6 181,38.9 182.7,38.2 181.8,38.9 180,39.6 	"/>
	<polyline class="st0" points="163.5,47.2 164.2,46.5 165.6,45.9 164.9,46.5 163.5,47.2 	"/>
	<polyline class="st0" points="161.4,49.4 161.7,49 162.4,48.7 162.1,49 161.4,49.4 	"/>
	<polyline class="st0" points="150.9,55.5 151.2,55.2 151.8,54.8 151.5,55.2 150.9,55.5 	"/>
	<polyline class="st0" points="151.2,57.9 151.9,56.9 153.6,56 153,56.9 151.2,57.9 	"/>
	<polyline class="st0" points="136.8,68.2 137.1,67.7 137.8,67.3 137.6,67.7 136.8,68.2 	"/>
	<path class="st0" d="M137.9,70.2l0.3-0.2c-0.2,0.2-0.4,0.4-0.5,0.6C137.8,70.5,137.8,70.3,137.9,70.2"/>
	<polyline class="st0" points="140.7,73.6 141,72.7 142.5,71.7 142.2,72.7 140.7,73.6 	"/>
	<polyline class="st0" points="145.9,74.8 146,74 147.2,73.3 147,74 145.9,74.8 	"/>
	<path class="st0" d="M146.9,77c-1.2,1.3-2.8,2-2.9,1.1c-0.1-0.9,1.9-2.9,3.3-2.9C148.2,75.3,147.5,76.4,146.9,77"/>
	<polyline class="st0" points="146.8,79.9 146.8,79.4 147.5,78.9 147.5,79.4 146.8,79.9 	"/>
	<polyline class="st0" points="125.1,101.3 125,100.5 126.2,99.6 126.2,100.5 125.1,101.3 	"/>
	<polyline class="st0" points="144.8,91.8 144.7,91.4 145.4,90.9 145.4,91.4 144.8,91.8 	"/>
	<polyline class="st0" points="144.4,95.7 144.3,94.8 145.5,93.9 145.7,94.8 144.4,95.7 	"/>
	<polyline class="st0" points="134.2,109.6 134,108.7 135.1,107.8 135.3,108.7 134.2,109.6 	"/>
	<path class="st0" d="M138.5,113.3c-1.1,1.5-2.8,1.9-3,0.7c-0.2-1.1,1.2-3,2.7-3.1c0.4,0,0.6,0.2,0.8,0.5c-0.2,0.2-0.6,0.4-0.8,0.6
		l0.4,1.1l0.1,0C138.5,113.2,138.5,113.3,138.5,113.3"/>
	<path class="st0" d="M142.5,115.4c-0.9,1.6-2.8,2.2-3.1,1c-0.2-1,1-2.9,2.6-3C143.1,113.4,143,114.6,142.5,115.4"/>
	<path class="st0" d="M145.2,117.5c-0.7,1.3-2.3,1.8-2.5,0.8c-0.2-0.8,0.8-2.4,2-2.5C145.7,115.9,145.6,116.9,145.2,117.5"/>
	<path class="st0" d="M143.5,127.1c-0.8,1.7-2.6,2.4-3.2,1.2c-0.5-1.1,0.8-3.2,2.4-3.3C143.8,125.1,143.9,126.1,143.5,127.1"/>
	<polyline class="st0" points="152.7,122.8 152.4,122.1 153.2,121.5 153.5,122.1 152.7,122.8 	"/>
	<path class="st0" d="M159.1,126c-0.8,1.9-3.1,2.4-3.6,1.1c-0.5-1.2,0.8-3.3,2.5-3.4C159.4,123.8,159.4,125.1,159.1,126"/>
	<path class="st0" d="M166.8,124.5c-0.8,2.1-3.6,2.9-4.2,1.3c-0.6-1.4,0.9-3.7,2.9-3.9C167.2,122,167.2,123.6,166.8,124.5"/>
	<polyline class="st0" points="152.2,148.1 151.3,146.8 152.8,145.5 153.6,146.8 152.2,148.1 	"/>
	<polyline class="st0" points="158.5,150.9 157.4,149.5 159.2,147.9 160.2,149.5 158.5,150.9 	"/>
	<polyline class="st0" points="169.1,147.8 168.4,146.8 169.6,145.9 170.2,146.8 169.1,147.8 	"/>
	<polyline class="st0" points="166.3,157.2 165.9,156.8 166.5,156.2 166.8,156.8 166.3,157.2 	"/>
	<polyline class="st0" points="169.5,166.6 168.4,165.4 169.9,164 170.9,165.4 169.5,166.6 	"/>
	<polyline class="st0" points="174.4,171.4 173.4,170.3 174.7,169.1 175.7,170.3 174.4,171.4 	"/>
	<polyline class="st0" points="179.9,171.8 179.3,171.1 180.1,170.4 180.6,171.1 179.9,171.8 	"/>
	<polyline class="st0" points="188,175.5 186.8,174.1 188.4,172.8 189.5,174.1 188,175.5 	"/>
	<path class="st0" d="M206.9,166c-0.5,2.4-3.7,3.4-5.1,1.5c-1.2-1.6,0-4.3,2.6-4.4C206.5,163.2,207.2,164.9,206.9,166"/>
	<polyline class="st0" points="205.1,176.1 203.7,174.5 205.4,173 206.9,174.5 205.1,176.1 	"/>
	<polyline class="st0" points="214.6,174.2 213.5,173.1 214.7,172 215.9,173.1 214.6,174.2 	"/>
	<polyline class="st0" points="213,186.2 211.4,184.5 213.2,182.9 214.8,184.5 213,186.2 	"/>
	<path class="st0" d="M230.9,176.9c-0.4,2.5-3.7,3.3-5.2,1.2c-1.1-1.6,0-4,2.6-4.1C230.4,174.1,231.1,175.8,230.9,176.9"/>
	<path class="st0" d="M221.3,200.7c-0.4,2.5-3.9,3.3-5.3,1.2c-1-1.5-0.2-4.1,2.6-4.2C220.8,197.8,221.5,199.5,221.3,200.7"/>
	<path class="st0" d="M245,181.9c-0.2,1.7-2.7,2.2-3.7,0.8c-0.8-1.1-0.1-2.8,1.7-2.9C244.6,180,245.1,181.1,245,181.9"/>
	<polyline class="st0" points="242.2,198.6 241.5,197.8 242.3,197.1 243.1,197.8 242.2,198.6 	"/>
	<polyline class="st0" points="260.5,190.7 258.7,189 260.5,187.4 262.4,189 260.5,190.7 	"/>
	<polyline class="st0" points="259.7,204.6 258.3,203.3 259.7,202.1 261,203.3 259.7,204.6 	"/>
	<path class="st0" d="M263.5,214.9c-0.3,2.3-3.6,3.5-5.3,1.2c-1.2-1.6-0.2-4.1,2.4-4.2C262.8,212,263.6,213.7,263.5,214.9"/>
	<polyline class="st0" points="271,216.3 269.5,214.8 271,213.2 272.7,214.8 271,216.3 	"/>
	<path class="st0" d="M286.1,207.5c-0.2,2.8-3.7,3.8-5.5,1.6c-1.6-1.9-0.6-4.8,2.3-4.9C285.3,204.4,286.2,206.2,286.1,207.5"/>
	<polyline class="st0" points="277.9,234.5 276.3,233 277.8,231.5 279.4,233 277.9,234.5 	"/>
	<polyline class="st0" points="291.5,226.6 290.8,226 291.5,225.3 292.1,226 291.5,226.6 	"/>
	<polyline class="st0" points="289.7,240.5 288.6,239.4 289.7,238.2 290.9,239.4 289.7,240.5 	"/>
	<path class="st0" d="M311.3,221.5c-0.1,1.8-2.5,2.6-3.7,1.1c-1.1-1.2-0.4-3.3,1.5-3.4C311,219.3,311.4,220.8,311.3,221.5"/>
	<path class="st0" d="M307.7,238.4c-0.2,2-2.6,2.8-3.9,1.2c-1-1.2-0.5-3.5,1.6-3.6C307.2,236.1,307.8,237.5,307.7,238.4"/>
	<path class="st0" d="M313.2,248.9c-0.2,2.3-3,3.2-4.5,1.4c-1.2-1.4-0.6-4.1,1.9-4.2C312.5,246.2,313.3,247.6,313.2,248.9"/>
	<path class="st0" d="M316.7,258.8c-0.3,2.7-3.5,3.7-5.2,1.6c-1.5-1.8-0.5-4.9,2.3-5C316.1,255.5,316.8,257.5,316.7,258.8"/>
	<polyline class="st0" points="329,247.5 327.3,245.8 329,244.1 330.6,245.8 329,247.5 	"/>
	<polyline class="st0" points="340.6,241.3 339.4,239.9 340.5,238.5 341.9,239.9 340.6,241.3 	"/>
	<polyline class="st0" points="336.4,264.2 334.9,262.6 336.4,261 337.9,262.6 336.4,264.2 	"/>
	<path class="st0" d="M355.3,246.1c-0.1,1.9-2.3,2.7-3.5,1.4c-1.1-1.2-0.7-3.8,1.4-3.9C354.9,243.7,355.4,245.2,355.3,246.1"/>
	<path class="st0" d="M356.2,262.5c-0.2,1.9-2.4,2.9-3.7,1.2c-1-1.4-0.3-3.7,1.7-3.8C355.7,260,356.4,261.4,356.2,262.5"/>
	<path class="st0" d="M359.1,269.5c-0.3,2.7-3.4,3.7-4.9,1.6c-1.3-1.8-0.3-4.9,2.3-5C358.6,266.2,359.2,268.2,359.1,269.5"/>
	<polyline class="st0" points="360.5,281 359.5,280 360.6,278.8 361.6,280 360.5,281 	"/>
	<path class="st0" d="M372.9,279.5c-0.3,1.8-2.4,2.7-3.5,1.4c-1-1.2-0.4-3.8,1.6-3.9C372.6,277,373.1,278.4,372.9,279.5"/>
	<polyline class="st0" points="385.5,272.8 384.3,271.1 385.7,269.5 387,271.1 385.5,272.8 	"/>
	<path class="st0" d="M378,304.3c-0.5,2.2-3,3.2-4.1,1.6c-0.9-1.2-0.6-3.6,1.4-4.4l1.1,1.4l1-1C377.9,302.5,378.2,303.3,378,304.3"
		/>
	<polyline class="st0" points="394.3,289.7 393.4,288.4 394.5,287.3 395.4,288.4 394.3,289.7 	"/>
	<path class="st0" d="M398.6,291.8c-0.3,1.7-2.2,2.5-3,1.3c-0.8-1.2-0.1-3.6,1.5-3.7C398.5,289.5,398.8,290.9,398.6,291.8"/>
	<path class="st0" d="M402.8,294.6c-0.3,1.6-2,2.3-2.7,1.2c-0.8-1.1-0.1-3.2,1.4-3.3C402.6,292.6,403,293.6,402.8,294.6"/>
	<polyline class="st0" points="401.7,303.3 401.1,302.4 401.9,301.5 402.5,302.4 401.7,303.3 	"/>
	<polyline class="st0" points="403.7,307.7 403,306.8 404,305.7 404.6,306.8 403.7,307.7 	"/>
	<polyline class="st0" points="395.4,323.4 394.5,321.9 395.9,320.4 396.8,321.9 395.4,323.4 	"/>
	<polyline class="st0" points="414.9,315.7 414.4,314.8 415.2,314 415.7,314.8 414.9,315.7 	"/>
	<path class="st0" d="M418.3,323.6c-0.5,1.6-2,2.3-2.5,1.2c-0.6-1.1,0.3-3,1.6-3.1C418.3,321.7,418.5,322.7,418.3,323.6"/>
	<path class="st0" d="M410.2,330.5c-0.6,1.8-2.4,2.6-3,1.3c-0.6-1.2,0.4-3.6,2-3.7C410.3,328.2,410.5,329.6,410.2,330.5"/>
	<polyline class="st0" points="411.2,338.9 411,338.3 411.5,337.8 411.7,338.3 411.2,338.9 	"/>
	<polyline class="st0" points="411.8,347.9 411.4,346.9 412.5,345.8 412.9,346.9 411.8,347.9 	"/>
	<path class="st0" d="M411.8,355.4c-0.9,2.2-3.2,3.2-3.8,1.6c-0.6-1.6,1-4.5,3-4.7C412.4,352.4,412.3,354.2,411.8,355.4"/>
	<polyline class="st0" points="407.8,362.5 407.3,361 409,359.4 409.4,361 407.8,362.5 	"/>
	<polyline class="st0" points="397.1,371 396.6,369.5 398.3,367.9 398.8,369.5 397.1,371 	"/>
	<path class="st0" d="M389.3,376c-0.7,1.4-2.4,2.1-2.7,1c-0.3-0.9,0.7-2.8,2.1-2.9C389.7,374.3,389.7,375.3,389.3,376"/>
	<path class="st0" d="M389.6,381.5c-0.9,1.8-2.9,2.6-3.3,1.3c-0.4-1.1,0.9-3.5,2.7-3.6C390.1,379.3,390.1,380.4,389.6,381.5"/>
	<polyline class="st0" points="393.7,388.2 393.6,387.3 394.6,386.4 394.8,387.3 393.7,388.2 	"/>
	<path class="st0" d="M390.8,394.2c-1.2,2-3.4,2.8-3.7,1.4c-0.3-1.4,1.6-3.9,3.3-4C391.7,391.7,391.4,393.1,390.8,394.2"/>
	<polyline class="st0" points="386.1,400.7 385.9,399.5 387.3,398.5 387.5,399.5 386.1,400.7 	"/>
	<path class="st0" d="M383,408.9c-0.9,1.3-2.6,2.1-2.8,1.2c-0.2-1,1.4-3,2.7-3.1C383.8,407,383.6,408,383,408.9"/>
	<path class="st0" d="M376.9,409.3c-1.1,1.6-3.3,2.6-3.6,1.3c-0.2-1.2,1.7-3.6,3.4-3.7C377.9,407,377.6,408.4,376.9,409.3"/>
	<polyline class="st0" points="366.9,418.5 366.7,417.2 368.6,415.9 368.8,417.2 366.9,418.5 	"/>
	<polyline class="st0" points="369.3,429.1 369.4,428.3 370.8,427.3 370.7,428.3 369.3,429.1 	"/>
	<path class="st0" d="M356.4,425.6c-0.3,0.3-0.7,0.8-1.4,1.2c-0.4-0.2-0.9-0.3-1.5-0.2c-0.1-1.1,1.5-2.7,2.8-2.8
		C357.2,423.9,356.9,424.9,356.4,425.6"/>
	<path class="st0" d="M359.5,437.7c-1,1-2.3,1.5-2.3,0.8c0-0.7,1.5-2.2,2.6-2.2C360.5,436.4,360,437.2,359.5,437.7"/>
	<path class="st0" d="M350.7,445c-1.3,1.2-3,1.8-3,1.1c0-0.8,2.1-2.7,3.5-2.8C352.1,443.3,351.4,444.3,350.7,445"/>
	<path class="st0" d="M344.6,447.9c-1.4,1.3-3.3,2-3.2,1.1c0-0.8,2.2-2.9,3.7-3C346,446.2,345.5,447.1,344.6,447.9"/>
	<path class="st0" d="M336.7,450.6c-0.9,0.9-2.2,1.3-2.2,0.7c0-0.6,1.5-2,2.5-2C337.7,449.4,337.2,450.1,336.7,450.6"/>
	<path class="st0" d="M335.7,456.7c-1.3,1.1-3,1.7-3,1.1c0-0.7,2.4-2.6,3.7-2.7c0.8,0.1,0.1,0.9-0.5,1.5
		C335.9,456.6,335.8,456.7,335.7,456.7"/>
	<polyline class="st0" points="323.2,455.2 323.3,454.3 324.8,453.4 324.8,454.3 323.2,455.2 	"/>
	<path class="st0" d="M327.1,459.6c-1,0.8-2.4,1.4-2.4,0.8c0-0.5,1.8-2.1,2.9-2.1c0.7,0,0.1,0.7-0.4,1.2
		C327.2,459.5,327.1,459.5,327.1,459.6"/>
	<path class="st0" d="M323,460.3c-1.2,1-2.7,1.5-2.7,0.9c0-0.7,1.9-2.2,3.2-2.3c0.7,0.1,0.2,0.8-0.3,1.3
		C323.1,460.2,323.1,460.2,323,460.3"/>
	<path class="st0" d="M319.2,460.6c-0.8,0.7-2.1,1.2-2.1,0.7c0-0.6,1.4-1.7,2.4-1.8C320.1,459.5,319.6,460.2,319.2,460.6"/>
	<path class="st0" d="M314.4,463c-0.9,0.7-1.9,1-1.9,0.6c0-0.4,1.3-1.5,2.1-1.6C315.3,462.1,314.9,462.7,314.4,463"/>
	<polyline class="st0" points="307.3,465.9 307.5,465.4 308.4,464.9 308.3,465.4 307.3,465.9 	"/>
	<path class="st0" d="M305.2,465c-1,0.9-2.4,1.3-2.4,0.7c0-0.6,1.5-1.9,2.6-1.9C306.1,463.7,305.7,464.5,305.2,465"/>
	<polyline class="st0" points="297.1,471.5 297.1,471.2 297.6,471 297.6,471.2 297.1,471.5 	"/>
	<polyline class="st0" points="294.6,472.1 294.7,471.9 295.2,471.6 295.1,471.9 294.6,472.1 	"/>
	<path class="st0" d="M289.8,475.7c-0.9,0.7-2.1,1-2,0.6c0.1-0.4,1.5-1.5,2.4-1.5c0.6,0,0.1,0.6-0.1,0.7
		C290,475.5,289.9,475.6,289.8,475.7"/>
	<path class="st0" d="M295,473.1c-1,0.7-2.3,1.2-2.3,0.7c0.1-0.5,1.6-1.7,2.7-1.8c0.6,0,0.2,0.6-0.1,0.9
		C295.2,472.9,295.1,473,295,473.1"/>
	<polyline class="st0" points="285,477.2 285,476.9 285.7,476.6 285.6,476.9 285,477.2 	"/>
	<polyline class="st0" points="286.1,475.3 286.2,475 286.8,474.6 286.8,475 286.1,475.3 	"/>
	<path class="st0" d="M281.6,477.3c-0.8,0.7-2.1,1.1-2.1,0.5c0-0.5,1.3-1.5,2.3-1.6c0.6,0,0.4,0.5-0.1,0.9
		C281.7,477.2,281.6,477.3,281.6,477.3"/>
	<path class="st0" d="M288.1,469.3c-0.7,0.8-2,1.2-2,0.5c0-0.5,0.9-1.5,1.9-1.5C288.5,468.3,288.5,468.8,288.1,469.3"/>
	<polyline class="st0" points="282.2,470.8 281.9,470.1 283.1,469.4 283.4,470.1 282.2,470.8 	"/>
	<path class="st0" d="M279.2,469.9c-0.1-0.2-0.2-0.3-0.4-0.5c0.1-0.1,0.3-0.2,0.5-0.3l0.2,0.6L279.2,469.9"/>
	<path class="st0" d="M282.2,466.3c-0.7,1.2-2.5,1.5-2.7,0.6c-0.2-0.7,0.8-1.9,2.1-2C282.6,464.9,282.6,465.7,282.2,466.3"/>
	<path class="st0" d="M282.1,463.6c-0.6,1-2.1,1.4-2.4,0.5c-0.2-0.7,0.8-1.7,1.8-1.8C282.4,462.4,282.3,463.1,282.1,463.6"/>
	<path class="st0" d="M271.8,468c-0.3,0.7-1.4,1-1.6,0.4c-0.2-0.4,0.2-1.2,1.1-1.2C271.9,467.1,271.9,467.6,271.8,468"/>
	<path class="st0" d="M270.4,466.3c-0.3,0.8-1.4,1-1.7,0.4c-0.2-0.5,0.2-1.2,1.1-1.3C270.5,465.5,270.6,466,270.4,466.3"/>
	<path class="st0" d="M278.2,454.2c-0.4,0.3-0.8,0.9-0.7,1.5c-0.7-0.2-1.1-0.1-1.6-0.1c-0.3-0.8,0.4-1.8,1.6-1.9
		C277.6,453.7,278,453.8,278.2,454.2C278.2,454.2,278.2,454.2,278.2,454.2"/>
	<path class="st0" d="M268.7,460.6c-1,0.3-1.7-0.6-1.2-1.5c0.1-0.2,0.2-0.3,0.3-0.4C267.8,458.8,267.6,460,268.7,460.6
		C268.7,460.6,268.7,460.6,268.7,460.6"/>
	<polyline class="st0" points="260.5,462.6 259.8,461.9 260.6,461.1 261.5,461.9 260.5,462.6 	"/>
	<path class="st0" d="M267.2,452.1c-0.3,1.2-1.9,1.5-2.5,0.6c-0.4-0.7,0-1.9,1.3-1.9C267.1,450.8,267.3,451.6,267.2,452.1"/>
	<polyline class="st0" points="255.3,457.4 254.7,456.9 255.2,456.4 255.9,456.9 255.3,457.4 	"/>
	<polyline class="st0" points="259.1,448.2 258.3,447.5 259.2,446.7 259.9,447.5 259.1,448.2 	"/>
	<path class="st0" d="M257.4,446.3c-0.2,1.3-2.1,1.8-3,0.7c-0.7-0.8-0.3-2.3,1.3-2.3C257,444.6,257.5,445.6,257.4,446.3"/>
	<polyline class="st0" points="247.9,447.8 247.2,447.2 247.7,446.6 248.4,447.2 247.9,447.8 	"/>
	<path class="st0" d="M244.2,435.4c0,1.3-1.6,1.8-2.7,0.8c-0.8-0.8-0.7-2.3,0.9-2.4C243.5,433.9,244.2,434.7,244.2,435.4"/>
	<polyline class="st0" points="238.7,431 237.9,430.3 238.5,429.6 239.4,430.3 238.7,431 	"/>
	<polyline class="st0" points="231.4,430.9 229.9,429.7 231,428.5 232.5,429.7 231.4,430.9 	"/>
	<polyline class="st0" points="226.1,430.1 225.5,429.5 225.9,429 226.6,429.5 226.1,430.1 	"/>
	<path class="st0" d="M217.6,436.3c0.2,1-0.8,1.5-1.8,0.8c-1-0.7-1.2-2-0.2-2.2c0.1,0,0.2,0,0.3,0
		C216.8,435,217.5,435.7,217.6,436.3"/>
	<path class="st0" d="M216.5,423.3c0.3,1.6-1.6,2.3-3.1,1.2c-1.6-1.2-1.4-3.2,0.3-3.4c0.1,0,0.1,0,0.2,0
		C215.6,421.1,216.4,422.5,216.5,423.3"/>
	<polyline class="st0" points="205.6,429.2 204.7,428.6 205.1,427.9 206.1,428.6 205.6,429.2 	"/>
	<path class="st0" d="M203.2,415.9c0.3,1.6-1.3,2.3-2.9,1.3c-1.7-1.1-1.8-3.2-0.3-3.5c0.1,0,0.3,0,0.4,0c0.6,0,1,0.2,1,0.2
		c0.3,0.2,0.4,0.5,0.7,0.7c0.2,0.2,0.6,0.4,0.8,0.7C202.9,415.3,203.1,415.6,203.2,415.9"/>
	<polyline class="st0" points="194.4,421.1 192.9,419.9 193.6,418.8 195.1,419.9 194.4,421.1 	"/>
	<polyline class="st0" points="188.7,410.7 187.2,409.5 187.8,408.3 189.4,409.5 188.7,410.7 	"/>
	<polyline class="st0" points="183.2,409.2 181.7,408 182.4,406.9 183.9,408 183.2,409.2 	"/>
	<path class="st0" d="M178.9,409.8c0.4,1.2-0.6,1.8-1.8,1.2c-1.5-0.8-1.8-2.5-0.6-2.8c0.1,0,0.2,0,0.3,0
		C177.8,408.2,178.7,409,178.9,409.8"/>
	<path class="st0" d="M173.7,409.8c0.5,1.5-0.6,2.3-2.2,1.6c-1.9-0.9-2.8-3.4-1.4-3.9c0.2-0.1,0.4-0.1,0.5-0.1
		C172.2,407.5,173.4,408.7,173.7,409.8"/>
	<path class="st0" d="M170,393c0.4,1.4-0.9,1.9-2,1.2c-1.6-0.9-1.7-2.8-0.5-3.1c0.1,0,0.2,0,0.3,0C169,391.2,169.9,392.3,170,393"/>
	<path class="st0" d="M163.2,386c0.3,1.2-0.7,1.9-1.9,1.2c-1.4-0.9-1.6-2.7-0.5-2.9c0.1,0,0.2,0,0.3,0
		C162.2,384.3,163,385.2,163.2,386"/>
	<path class="st0" d="M157.9,382.7c0.4,1.6-0.9,2.4-2.4,1.5c-1.7-1-2.2-3.5-0.7-3.8c0.1,0,0.3,0,0.4,0
		C156.8,380.4,157.7,381.8,157.9,382.7"/>
	<polyline class="st0" points="148.4,379.3 147.3,378.4 147.7,377.5 148.9,378.4 148.4,379.3 	"/>
	<polyline class="st0" points="141.7,393.3 140.7,392.5 141,391.7 142,392.5 141.7,393.3 	"/>
	<path class="st0" d="M138.1,378c0.4,1.5-0.6,2.3-1.9,1.6c-1.7-0.9-2.4-3.4-1-3.8c0.1,0,0.2,0,0.3,0
		C136.8,375.8,137.8,377.2,138.1,378"/>
	<polyline class="st0" points="127.8,378.2 126.8,377.4 127.2,376.6 128.1,377.4 127.8,378.2 	"/>
	<polyline class="st0" points="123,371.8 121.4,370.5 122,369.2 123.4,370.5 123,371.8 	"/>
	<polyline class="st0" points="117.3,373 116.1,371.9 116.4,370.8 117.7,371.9 117.3,373 	"/>
	<polyline class="st0" points="113,375.8 111.5,374.5 111.8,373.1 113.4,374.5 113,375.8 	"/>
	<polyline class="st0" points="107,366.3 105.7,365.1 106,364 107.3,365.1 107,366.3 	"/>
	<polyline class="st0" points="101.6,357.4 100.1,356 100.6,354.7 102,356 101.6,357.4 	"/>
	<path class="st0" d="M97.5,360.3c0.6,1.8-0.2,2.9-1.6,2.2c-2-1-3.1-4.5-1.7-5c0.1,0,0.2,0,0.3-0.1C96,357.4,97.1,359.2,97.5,360.3"
		/>
	<polyline class="st0" points="89.3,350.3 87.8,348.8 88.3,347.4 89.7,348.8 89.3,350.3 	"/>
	<polyline class="st0" points="89.5,356 88.5,354.9 88.8,353.9 89.8,354.9 89.5,356 	"/>
	<path class="st0" d="M82.2,359.2c0.6,1.6,0.1,2.7-0.9,2.2c-1.7-0.8-3.2-4.5-2-5c0.1,0,0.2,0,0.3-0.1
		C80.7,356.4,81.8,358.1,82.2,359.2"/>
	<polyline class="st0" points="80.4,342.1 79.5,341.1 79.8,340.1 80.7,341.1 80.4,342.1 	"/>
	<path class="st0" d="M73.2,349.7c0.5,1.4,0.1,2.3-0.7,1.9c-1.4-0.7-2.6-3.9-1.6-4.3c0.1,0,0.1,0,0.2,0
		C72.2,347.3,73,348.9,73.2,349.7"/>
	<polyline class="st0" points="72.1,328.1 71.5,327.4 71.7,326.7 72.3,327.4 72.1,328.1 	"/>
	<path class="st0" d="M76.1,341.5c0.4,1.2-0.1,1.9-0.9,1.5c-1.2-0.7-1.8-3.2-0.9-3.4c0,0,0.1,0,0.1,0
		C75.2,339.6,75.9,340.6,76.1,341.5"/>
	<polyline class="st0" points="70.5,335.9 69.4,334.7 69.7,333.5 70.8,334.7 70.5,335.9 	"/>
	<path class="st0" d="M79.2,331.4c0.4,1.7-0.4,2.8-1.5,2.2c-1.8-1-2.5-4.8-1-5.1c0,0,0.1,0,0.2,0C78.1,328.6,79,330.4,79.2,331.4"/>
	<path class="st0" d="M69.8,322.6c0.4,1.9-0.4,3.1-1.5,2.4c-1.7-1.1-2.4-5.1-1-5.4c0,0,0.1,0,0.2,0
		C68.7,319.6,69.6,321.4,69.8,322.6"/>
	<polyline class="st0" points="61,313.6 60.4,312.8 60.7,312 61.2,312.8 61,313.6 	"/>
	<path class="st0" d="M67.8,309.6c0.3,1.8-0.7,2.8-1.7,2c-1.5-1.2-1.8-4.5-0.5-4.8c0,0,0.1,0,0.1,0
		C66.9,306.9,67.6,308.5,67.8,309.6"/>
	<polyline class="st0" points="64.7,301.3 63.6,299.8 64.1,298.2 65.3,299.8 64.7,301.3 	"/>
	<polyline class="st0" points="66.1,295.7 64.9,294 65.6,292.3 66.8,294 66.1,295.7 	"/>
	<polyline class="st0" points="76.6,293.2 75.3,291.5 76.1,289.7 77.5,291.5 76.6,293.2 	"/>
	<polyline class="st0" points="79.8,283.8 79,282.7 79.6,281.7 80.4,282.7 79.8,283.8 	"/>
	<path class="st0" d="M78.3,272c0,1.7-1.2,2.6-2,1.6c-1.1-1.2-0.9-4,0.5-4.1C77.9,269.6,78.3,271,78.3,272"/>
	<path class="st0" d="M75.6,265.1c0,1.8-1.3,2.5-2.2,1.7c-1.1-1.1-0.9-4.1,0.6-4.3C75.1,262.6,75.6,264.1,75.6,265.1"/>
	<polyline class="st0" points="62.3,254.4 61.9,253.8 62.3,253 62.7,253.8 62.3,254.4 	"/>
	<polyline class="st0" points="64.2,249.7 63.4,248.3 64.2,246.9 65,248.3 64.2,249.7 	"/>
	<path class="st0" d="M72.3,235.6c0,0.5-0.2,0.9-0.2,1c-0.8,0.2-1.5,0.7-2.2,1.4c-1.7-1.2-0.8-5.2,0.8-5.5c0.1,0,0.1,0,0.2,0
		C72.1,232.7,72.5,234.4,72.3,235.6"/>
	<polyline class="st0" points="83.5,243.7 83.1,243 83.5,242.3 84,243 83.5,243.7 	"/>
	<polyline class="st0" points="76.6,222.1 76,220.9 76.8,219.7 77.4,220.9 76.6,222.1 	"/>
	<polyline class="st0" points="82.7,217.4 82,216.1 83.1,214.7 83.7,216.1 82.7,217.4 	"/>
	<path class="st0" d="M98.1,221.1c-0.3,2-2.3,3.3-3.3,1.8c-1.1-1.5-0.3-4.6,1.7-4.7C97.8,218.3,98.4,219.7,98.1,221.1"/>
	<polyline class="st0" points="90.4,202.6 89.7,201 91,199.4 91.8,201 90.4,202.6 	"/>
	<polyline class="st0" points="108.2,217.6 107.4,216.5 108.4,215.3 109.2,216.5 108.2,217.6 	"/>
	<path class="st0" d="M113.2,211.5c-0.4,1.9-2.3,2.8-3.2,1.4c-0.9-1.3,0-3.9,1.7-4C113.1,209,113.4,210.5,113.2,211.5"/>
	<path class="st0" d="M105.8,195c-1.4-0.1-1.4-2.2-0.3-3.2c0.4-0.4,0.8-0.4,0.9-0.4c1,0.1,1.2,1.1,1,1.8
		C107.3,193.9,106.3,194.4,105.8,195"/>
	<polyline class="st0" points="108.8,185.2 108,183.7 109.5,182.2 110.3,183.7 108.8,185.2 	"/>
	<path class="st0" d="M118.8,180.8c-0.6,2.3-2.9,3-3.8,1.6c-0.9-1.5,0.3-4.3,2.3-4.4C119,178,119.1,179.7,118.8,180.8"/>
	<path class="st0" d="M125.5,184.1l-0.5-0.8l0.2-0.2c0.2-0.2,0.4-0.4,0.6-0.6l0.5,0.8L125.5,184.1"/>
	<polyline class="st0" points="128,172.6 127.6,171.7 128.4,170.9 128.9,171.7 128,172.6 	"/>
	<polyline class="st0" points="133.6,168.7 133.2,167.9 134,167.1 134.5,167.9 133.6,168.7 	"/>
	<path class="st0" d="M142.2,167c-0.7,2.3-3.3,3.2-4.2,1.4c-0.8-1.5,0.5-4,2.6-4.1C142.1,164.3,142.5,165.7,142.2,167"/>
	<path class="st0" d="M142.3,153c-0.5,1.4-2.2,2.2-2.8,1.1c-0.5-1,0.4-2.8,1.8-2.9C142.3,151.3,142.6,152.2,142.3,153"/>
	<polyline class="st0" points="145.7,149.9 144.9,148.4 146.5,147 147.4,148.4 145.7,149.9 	"/>
	<path class="st0" d="M156.3,149c-0.7,2-3,2.5-3.7,1.1c-0.6-1.2,0.6-3.3,2.3-3.5C156.4,146.8,156.6,148.1,156.3,149"/>
	<polyline class="st0" points="156.7,145.5 155.7,144 157.5,142.6 158.5,144 156.7,145.5 	"/>
	<polyline class="st0" points="170.6,149.1 169.9,148.3 171,147.4 171.6,148.3 170.6,149.1 	"/>
	<path class="st0" d="M172.1,151.5c-0.5,1.5-2.6,2.2-3.3,0.8c-0.5-1.1,0.5-2.7,2-2.8C172,149.5,172.3,150.7,172.1,151.5"/>
	<path class="st0" d="M174.5,140.1c-0.7-0.4-1.4-0.4-2.2,0c0,0,0-0.1-0.1-0.1l1.5-1.2l0.9,1.2L174.5,140.1"/>
	<polyline class="st0" points="177.6,126.6 176.8,125.4 178.3,124.2 179.1,125.4 177.6,126.6 	"/>
	<polyline class="st0" points="185.4,129.5 184.8,128.7 185.8,128 186.4,128.7 185.4,129.5 	"/>
	<path class="st0" d="M195.1,130.1c-0.4,1.5-2.3,2-3,0.9c-0.5-0.9,0.1-2.5,1.8-2.6C195.1,128.5,195.3,129.5,195.1,130.1"/>
	<path class="st0" d="M195.5,115.4c-0.6,1.8-3.1,2.5-3.9,1.1c-0.6-1.1,0.4-3.2,2.4-3.3C195.4,113.3,195.8,114.4,195.5,115.4"/>
	<polyline class="st0" points="207.2,128.8 206.7,128.2 207.4,127.6 207.9,128.2 207.2,128.8 	"/>
	<path class="st0" d="M209,113.6c-0.4,1.4-2.4,1.8-3,0.7c-0.4-0.8,0.3-2.3,1.7-2.4C209,112,209.2,112.9,209,113.6"/>
	<polyline class="st0" points="215.5,115.5 214.9,114.9 215.7,114.3 216.3,114.9 215.5,115.5 	"/>
	<polyline class="st0" points="223.5,113.7 222.4,112.6 223.8,111.5 224.8,112.6 223.5,113.7 	"/>
	<path class="st0" d="M226.3,100.2c-0.4,1.6-2.7,2.1-3.5,0.8c-0.6-1,0.3-2.6,2-2.7C226.2,98.4,226.5,99.5,226.3,100.2"/>
	<path class="st0" d="M239.7,108.5c-0.3,1.5-2.3,1.8-3,0.7c-0.6-0.9,0.1-2.2,1.6-2.3C239.4,107,239.8,107.8,239.7,108.5"/>
	<path class="st0" d="M248.1,113c-0.3,1.9-3,2.5-4.1,0.9c-0.1-0.2-0.6-1-0.1-1.9c1,0.2,2-0.2,2.5-1.1
		C247.8,111.2,248.3,112.2,248.1,113"/>
	<polyline class="st0" points="245.6,96.3 245,95.7 245.7,95.1 246.3,95.7 245.6,96.3 	"/>
	<path class="st0" d="M249.2,84.9c-0.2,1.4-2.4,1.9-3.2,0.7c-0.6-0.9,0.1-2.3,1.6-2.4C248.9,83.2,249.3,84.2,249.2,84.9"/>
	<polyline class="st0" points="255.9,85.2 254.6,84.1 255.9,83 257.1,84.1 255.9,85.2 	"/>
	<polyline class="st0" points="271.1,95.3 270.2,94.5 271,93.9 271.8,94.5 271.1,95.3 	"/>
	<path class="st0" d="M277.6,94c0,2-2.6,2.4-3.9,1.1c-1.1-1.1-0.8-3.3,1.4-3.4C277,91.8,277.6,93.1,277.6,94"/>
	<polyline class="st0" points="269.9,75.9 269.4,75.6 269.8,75.3 270.2,75.6 269.9,75.9 	"/>
	<path class="st0" d="M279,89.2c0,1.6-2.1,2.2-3.4,1c-1.1-1.1-0.6-2.8,1.2-2.9C278.4,87.3,279,88.5,279,89.2"/>
	<polyline class="st0" points="283.6,86.8 282.5,86 283.3,85.1 284.4,86 283.6,86.8 	"/>
	<polyline class="st0" points="288.2,79.5 287.1,78.6 287.8,77.7 288.9,78.6 288.2,79.5 	"/>
	<path class="st0" d="M293.7,74.2c0.2,1.3-1.1,1.9-2.4,1.1c-1.3-0.9-1.3-2.5,0-2.8c0.1,0,0.2,0,0.3,0
		C292.7,72.6,293.5,73.4,293.7,74.2"/>
	<polyline class="st0" points="303.1,90.4 302.3,89.8 302.8,89.2 303.5,89.8 303.1,90.4 	"/>
	<path class="st0" d="M307.5,77.5c0.4,1.5-1,2.2-2.5,1.4c-1.7-0.9-2.1-3-0.7-3.4c0.2-0.1,0.4-0.1,0.5-0.1
		C306.3,75.5,307.3,76.7,307.5,77.5"/>
	<path class="st0" d="M313.6,80c0.4,1.4-0.8,2-2.2,1.3c-1.5-0.8-2-2.7-0.7-3.1c0.2-0.1,0.3-0.1,0.5-0.1
		C312.6,78.2,313.4,79.3,313.6,80"/>
	<path class="st0" d="M316,77.4c0.4,1.3-0.7,1.9-2,1.2c-1.4-0.8-1.9-2.6-0.8-3c0.2-0.1,0.3-0.1,0.5-0.1
		C314.9,75.6,315.8,76.7,316,77.4"/>
	<path class="st0" d="M319.8,78.3c0.3,0.9-0.4,1.5-1.5,1c-1.3-0.6-1.8-2.1-0.9-2.5c0.1,0,0.3-0.1,0.4-0.1
		C318.8,76.9,319.6,77.8,319.8,78.3"/>
	<path class="st0" d="M327.3,82.9c0.4,1.1-0.4,1.7-1.5,1.2c-1.3-0.6-1.9-2.3-1-2.7c0.1-0.1,0.3-0.1,0.4-0.1
		C326.3,81.3,327.1,82.2,327.3,82.9"/>
	<polyline class="st0" points="331.2,83.9 330.1,83.1 330.4,82.4 331.5,83.1 331.2,83.9 	"/>
	<path class="st0" d="M334.4,76.3c0.6,1.1-0.1,1.8-1.3,1.4c-1.6-0.6-2.7-2.6-1.6-3c0.1-0.1,0.3-0.1,0.4-0.1
		C332.9,74.6,334,75.5,334.4,76.3"/>
	<path class="st0" d="M339.2,76.2c0.5,1,0.1,1.6-1,1.3c-1.5-0.4-2.7-2.3-1.9-2.9c0.2-0.1,0.3-0.1,0.5-0.1
		C337.8,74.5,338.8,75.5,339.2,76.2"/>
	<polyline class="st0" points="339.3,74.7 337.8,73.7 338.1,72.8 339.5,73.7 339.3,74.7 	"/>
	<path class="st0" d="M337.5,84.7c0.6,1.3-0.3,2.1-1.7,1.6c-1.9-0.7-3-3.1-1.6-3.6c0.2-0.1,0.3-0.1,0.5-0.1
		C335.9,82.7,337.1,83.7,337.5,84.7"/>
	<path class="st0" d="M345.2,87.7c0.5,1.1-0.1,2.1-1.5,1.5c-1.8-0.7-2.8-2.9-1.6-3.4c0.2-0.1,0.3-0.1,0.4-0.1
		C343.8,85.8,344.9,86.9,345.2,87.7"/>
	<polyline class="st0" points="350.1,91.7 349.1,91.1 349.4,90.4 350.2,91.1 350.1,91.7 	"/>
	<polyline class="st0" points="354.2,99.1 353.2,98.4 353.5,97.7 354.5,98.4 354.2,99.1 	"/>
	<path class="st0" d="M362.7,98.8c0.6,1.4-0.1,2.2-1.5,1.7c-1.9-0.7-3.1-3.3-1.8-3.8c0.2-0.1,0.3-0.1,0.5-0.1
		C361.2,96.6,362.3,97.9,362.7,98.8"/>
	<polyline class="st0" points="363.4,109.8 362.1,108.9 362.5,108 363.7,108.9 363.4,109.8 	"/>
	<polyline class="st0" points="372.4,110.3 370.6,108.9 371.1,107.7 372.8,108.9 372.4,110.3 	"/>
	<polyline class="st0" points="375.3,117.9 374.1,117 374.4,116 375.7,117 375.3,117.9 	"/>
	<polyline class="st0" points="381.5,118.8 379.7,117.3 380.2,115.8 382,117.3 381.5,118.8 	"/>
	<path class="st0" d="M381.5,121.7c0.1,0.3,0.1,0.4,0.1,0.5c-0.8-0.8-1.5-1.5-2.4-2.1c0.1,0,0.2-0.1,0.3-0.1
		C380.4,120,381.2,120.9,381.5,121.7"/>
	<polyline class="st0" points="388.1,124.6 387.4,124 387.6,123.5 388.3,124 388.1,124.6 	"/>
	<path class="st0" d="M393.1,132c0.5,1.5-0.2,2.7-1.7,2c-1.9-0.9-3-3.9-1.6-4.5c0.2-0.1,0.4-0.1,0.5-0.1
		C391.6,129.5,392.7,131,393.1,132"/>
	<path class="st0" d="M390.5,138.2c0.4,1.4-0.5,2.4-1.9,1.7c-1.8-1-2.4-3.6-1-4c0.1,0,0.2,0,0.3,0
		C389.3,135.9,390.3,137.3,390.5,138.2"/>
	<polyline class="st0" points="402.3,141.7 400.9,140.4 401.4,139.2 402.7,140.4 402.3,141.7 	"/>
	<path class="st0" d="M405,147.7c0.5,1.6-0.5,2.5-1.8,1.7c-0.4-0.2-1.1-0.7-1.6-1.9c0.8-0.4,1.2-1.1,1.3-2.3
		C404.5,145.8,405,147.5,405,147.7"/>
	<path class="st0" d="M405.2,153.8c0.4,1.7-0.6,2.7-2,1.9c-1.8-1.1-2.4-4-1-4.5c0.1,0,0.2,0,0.3,0
		C404.1,151.2,405,152.8,405.2,153.8"/>
	<path class="st0" d="M396,156.3c0.3,1.2-0.5,2-1.6,1.4c-1.4-0.8-1.7-2.9-0.6-3.2c0.1,0,0.2,0,0.3,0
		C395.1,154.5,395.8,155.6,396,156.3"/>
	<path class="st0" d="M400.4,162.2c0.3,1.3-0.6,2-1.6,1.4c-1.3-0.8-1.7-3-0.6-3.3c0.1,0,0.2,0,0.3,0
		C399.6,160.3,400.3,161.5,400.4,162.2"/>
	<polyline class="st0" points="402.4,169.8 400.9,168.2 401.7,166.8 403.2,168.2 402.4,169.8 	"/>
	<polyline class="st0" points="415.4,176.3 413.7,174.6 414.5,173 416.1,174.6 415.4,176.3 	"/>
	<path class="st0" d="M401.6,180.1c0.2,1.5-0.9,2.1-1.9,1.4c-1.2-0.9-1.5-3.2,0-3.3c0,0,0.1,0,0.2,0
		C400.8,178.2,401.5,179.2,401.6,180.1"/>
	<path class="st0" d="M401.4,188.6c0.2,1.6-1.3,2.5-2.5,1.4c-1.3-1.2-1.2-3.5,0.2-3.7c0.1,0,0.1,0,0.2,0
		C400.4,186.4,401.3,187.6,401.4,188.6"/>
	<path class="st0" d="M409.6,197.9l-1.2-1.4l0.2-0.3c0.6,0.3,1,0.5,1.6,0.6C410,197.1,409.8,197.6,409.6,197.9"/>
	<path class="st0" d="M424.4,204.1c0.2,2-1.4,3.2-2.8,2c-1.7-1.4-1.6-4.9,0.1-5.2c0.1,0,0.1,0,0.2,0
		C423.4,201.1,424.3,202.9,424.4,204.1"/>
	<path class="st0" d="M421.5,210.3c0.1,2.2-1.5,3.5-3,2.2c-1.7-1.5-1.8-5.3,0.4-5.5C420.6,207.1,421.4,209,421.5,210.3"/>
	<polyline class="st0" points="423.7,218.3 422.6,216.9 423.4,215.5 424.5,216.9 423.7,218.3 	"/>
	<path class="st0" d="M400.6,222.7c-0.2-0.8-0.5-1.5-1-2.2c0.1-0.2,0.3-0.5,0.5-0.6l1.4,1.7L400.6,222.7"/>
	<path class="st0" d="M408.1,229.9c0,2.3-2.1,3.5-3.6,2c-1.5-1.5-1.3-5.1,1.1-5.3C407.2,226.7,408.1,228.4,408.1,229.9"/>
	<path class="st0" d="M423.8,238.1c0,2.6-2.1,3.5-3.3,2c-1.3-1.5-1.2-5.2,1.1-5.4C423.2,234.9,423.8,236.9,423.8,238.1"/>
	<polyline class="st0" points="411.7,245.2 410.7,244 411.6,242.7 412.6,244 411.7,245.2 	"/>
	<polyline class="st0" points="421.8,254.6 420.8,253.2 421.8,251.9 422.7,253.2 421.8,254.6 	"/>
	<path class="st0" d="M404.4,261.1c-0.2,1.7-1.7,2.6-2.7,1.5c-0.9-1.1-0.6-3.6,1.1-3.7C404.1,258.9,404.5,260.2,404.4,261.1"/>
	<polyline class="st0" points="398.8,272.1 397.8,270.8 398.9,269.5 399.8,270.8 398.8,272.1 	"/>
	<path class="st0" d="M402.8,278c-0.1,0.8-0.4,1.3-0.5,1.5c-0.2-1.7-1.7-2.3-2.6-1.1c-0.4,0.5-0.6,1.1-0.6,1.8
		c-1.8-1.8-0.7-5.3,1.7-5.5C402.5,274.9,403,276.8,402.8,278"/>
	<polyline class="st0" points="413.7,284 413,282.9 413.8,282 414.5,282.9 413.7,284 	"/>
	<path class="st0" d="M402.3,280.2c-0.3,1.7-2,2.4-2.9,1.2c-0.8-1.2-0.2-3.4,1.4-3.5C401.9,277.9,402.4,279.1,402.3,280.2"/>
	<polyline class="st0" points="404.7,299.9 403.5,298 405.2,296.3 406.3,298 404.7,299.9 	"/>
	<path class="st0" d="M389.2,289.5c-0.4,2.1-2.7,3-3.8,1.5c-1.1-1.5-0.2-4.3,1.9-4.4C389,286.7,389.4,288.4,389.2,289.5"/>
	<polyline class="st0" points="390.7,304.1 390.2,303.4 390.8,302.7 391.4,303.4 390.7,304.1 	"/>
	<polyline class="st0" points="377.3,301.8 376.3,302.9 375.2,301.5 375.2,301.4 376.6,300 377.7,301.4 377.3,301.8 	"/>
	<path class="st0" d="M378.1,315.9c-0.4,1.8-2.5,2.7-3.4,1.3c-0.8-1.2-0.1-3.7,1.8-3.8C378.1,313.6,378.3,315,378.1,315.9"/>
	<polyline class="st0" points="369.6,321 369.1,320.4 369.7,319.9 370.1,320.4 369.6,321 	"/>
	<polyline class="st0" points="371.5,333.9 371,333.3 371.7,332.6 372.2,333.3 371.5,333.9 	"/>
	<polyline class="st0" points="370.9,343.2 370.2,342.3 371.3,341.3 371.9,342.3 370.9,343.2 	"/>
	<polyline class="st0" points="365.1,347.2 364.1,345.7 365.8,344.2 366.8,345.7 365.1,347.2 	"/>
	<polyline class="st0" points="350.8,343.5 350,342.5 351.1,341.4 351.9,342.5 350.8,343.5 	"/>
	<polyline class="st0" points="345,347.5 344.3,346.6 345.3,345.8 345.8,346.6 345,347.5 	"/>
	<path class="st0" d="M339.7,351.8c-0.5,2-3.3,2.6-4.1,1c-0.6-1.2,0.3-3.4,2.4-3.5C339.8,349.4,339.9,351,339.7,351.8"/>
	<polyline class="st0" points="348.4,350.8 347.6,349.6 348.9,348.4 349.8,349.6 348.4,350.8 	"/>
	<polyline class="st0" points="341.1,356.3 340.5,355.6 341.4,354.8 341.9,355.6 341.1,356.3 	"/>
	<path class="st0" d="M336.6,356.9c-0.6,2.1-3.3,2.9-4.3,1.3c-0.8-1.3,0.2-3.8,2.5-3.9C336.7,354.4,336.9,355.9,336.6,356.9"/>
	<path class="st0" d="M325.1,367.4c-0.5,1.7-2.6,2.3-3.4,1c-0.7-1.1,0.1-3,2-3C325,365.4,325.3,366.6,325.1,367.4"/>
	<path class="st0" d="M318.3,364.9c-0.4,1.7-2.7,2.2-3.5,0.8c-0.6-1.1,0.3-2.7,1.9-2.8C318.2,363,318.5,364.1,318.3,364.9"/>
	<polyline class="st0" points="303.4,366.6 302.2,365.3 303.7,364.1 304.9,365.3 303.4,366.6 	"/>
	<polyline class="st0" points="297.3,363.4 296.3,362.4 297.6,361.4 298.5,362.4 297.3,363.4 	"/>
	<path class="st0" d="M289.5,366.3c-0.3,1.6-2.6,2.4-3.6,0.8c-0.7-1.1,0.1-2.7,1.8-2.8C289.2,364.4,289.7,365.5,289.5,366.3"/>
	<path class="st0" d="M284.3,352.4c-0.3,2-3.2,3-4.6,1c-1.1-1.5,0.2-3.5,2.2-3.6C283.8,349.9,284.4,351.4,284.3,352.4"/>
	<path class="st0" d="M276.2,354.2c-0.3,1.9-3,2.5-4.1,0.9c-0.9-1.3,0-3.2,2-3.3C275.7,352,276.3,353.3,276.2,354.2"/>
	<polyline class="st0" points="274.9,342.3 273.7,341 275,339.9 276.2,341 274.9,342.3 	"/>
	<polyline class="st0" points="270.3,339.4 269.5,338.6 270.3,337.9 271.1,338.6 270.3,339.4 	"/>
	<path class="st0" d="M262,338.6c-0.3,2.1-3.4,2.8-4.7,1c-1-1.4-0.1-3.5,2.1-3.6C261.4,336.1,262.1,337.6,262,338.6"/>
	<polyline class="st0" points="246.4,343.1 244.8,341.6 246.4,340.1 248.1,341.6 246.4,343.1 	"/>
	<polyline class="st0" points="251.4,325.1 249.5,323.4 251.4,321.7 253.2,323.4 251.4,325.1 	"/>
	<polyline class="st0" points="232.6,335.9 231.7,335.1 232.6,334.2 233.5,335.1 232.6,335.9 	"/>
	<polyline class="st0" points="235.4,319.1 234.3,318.2 235.4,317.2 236.4,318.2 235.4,319.1 	"/>
	<polyline class="st0" points="221.6,322.6 220.9,322 221.5,321.4 222.2,322 221.6,322.6 	"/>
	<polyline class="st0" points="214.9,315.3 213.2,313.7 214.8,312.1 216.4,313.7 214.9,315.3 	"/>
	<path class="st0" d="M218.5,302.5c-0.1,2-2.7,2.8-4.1,1.2c-1.2-1.3-0.5-3.6,1.7-3.7C217.8,300.1,218.6,301.5,218.5,302.5"/>
	<polyline class="st0" points="193.6,320.3 192.7,319.5 193.4,318.7 194.3,319.5 193.6,320.3 	"/>
	<path class="st0" d="M200.2,296.5c-0.1,2.7-3.4,3.7-5.2,1.6c-1.6-1.8-0.7-4.8,2.1-4.9C199.3,293.2,200.3,295.1,200.2,296.5"/>
	<path class="st0" d="M192.6,291.3c-0.3-0.4-0.6-0.7-1-0.9c0,0,0.1-0.1,0.1-0.1L192.6,291.3L192.6,291.3"/>
	<polyline class="st0" points="177.3,298.7 175.9,297.5 177.1,296.3 178.4,297.5 177.3,298.7 	"/>
	<path class="st0" d="M168.4,300c0,2-2.2,2.9-3.7,1.4c-1.3-1.3-1-3.9,1.3-4C167.8,297.5,168.4,299,168.4,300"/>
	<path class="st0" d="M175.6,285.9c-0.1,2.2-2.4,2.8-3.7,1.5c-1.1-1.2-1-3.9,1.4-4C174.8,283.4,175.6,284.7,175.6,285.9"/>
	<path class="st0" d="M168.1,282.9c-0.1,2-2.3,2.6-3.4,1.4c-1.1-1.2-0.9-3.7,1.3-3.8C167.5,280.5,168.1,281.9,168.1,282.9"/>
	<polyline class="st0" points="173.8,269.7 173,268.7 173.8,267.9 174.6,268.7 173.8,269.7 	"/>
	<polyline class="st0" points="173,264.4 171.6,262.8 173,261.3 174.5,262.8 173,264.4 	"/>
	<path class="st0" d="M168.3,261.6c-0.2,2.4-2.8,3.5-4.4,1.8c-1.6-1.7-0.8-4.9,1.8-5C167.6,258.5,168.4,260.3,168.3,261.6"/>
	<polyline class="st0" points="155.8,260 154.4,258.3 155.8,256.6 157.3,258.3 155.8,260 	"/>
	<path class="st0" d="M156.3,248.1c-0.2,2-2.4,2.9-3.6,1.4c-1.1-1.3-0.6-4,1.6-4.1C155.8,245.6,156.4,247.1,156.3,248.1"/>
	<polyline class="st0" points="139,250.5 137.6,248.9 139,247.1 140.4,248.9 139,250.5 	"/>
	<polyline class="st0" points="146,235.6 145.5,235 146,234.4 146.5,235 146,235.6 	"/>
	<polyline class="st0" points="144.1,228.7 143.3,227.8 144.2,226.8 145,227.8 144.1,228.7 	"/>
	<polyline class="st0" points="134.5,227.2 133.3,225.8 134.7,224.3 135.8,225.8 134.5,227.2 	"/>
	<path class="st0" d="M144.6,211.1c-0.4,2.2-3,3-4,1.3c-0.9-1.5,0-3.9,2-4.1C144.3,208.5,144.8,210,144.6,211.1"/>
	<polyline class="st0" points="128.3,216.2 127.4,214.9 128.6,213.7 129.5,214.9 128.3,216.2 	"/>
	<polyline class="st0" points="138.5,200.2 137.9,199.2 138.8,198.3 139.5,199.2 138.5,200.2 	"/>
	<path class="st0" d="M130.2,201.1c-0.2,1.1-0.8,1.6-1,1.9c-0.1-0.2-0.3-0.5-0.5-0.7l-1.2,1.3c-2.5-0.2-2.4-3.6-0.8-5
		c0.7-0.6,1.3-0.6,1.6-0.6C130,198.1,130.5,199.7,130.2,201.1"/>
	<path class="st0" d="M124.3,196.7c-0.4,1.9-2.3,2.7-3.2,1.3c-0.9-1.3,0-3.6,1.8-3.7C124.3,194.4,124.5,195.8,124.3,196.7"/>
	<polyline class="st0" points="125.2,195.3 124.2,193.7 125.7,192.2 126.7,193.7 125.2,195.3 	"/>
	<path class="st0" d="M124.2,187.5c-0.3,1.1-1.3,2-2.3,1.6c1.2-0.8,1.7-2.2,1.4-3.6C124.2,185.8,124.4,186.8,124.2,187.5"/>
	<polyline class="st0" points="118.4,184.2 117.8,183.3 118.7,182.6 119.2,183.3 118.4,184.2 	"/>
	<path class="st0" d="M138.9,173.3c-0.6,2.1-3.1,3-4,1.3c-0.7-1.3,0.3-3.9,2.4-4C139,170.7,139.2,172.3,138.9,173.3"/>
	<polyline class="st0" points="126.2,167.5 125.8,166.6 126.6,165.8 127.1,166.6 126.2,167.5 	"/>
	<polyline class="st0" points="122,160.1 121.2,158.6 122.8,157.1 123.6,158.6 122,160.1 	"/>
	<path class="st0" d="M136.7,151.5c-0.8,2.2-3.4,3-4.1,1.3c-0.6-1.4,0.6-3.9,2.8-4.1C137.1,148.8,137.1,150.5,136.7,151.5"/>
	<path class="st0" d="M139.5,142.3c-0.8,2-3.1,2.7-3.8,1.2c-0.6-1.3,0.8-3.6,2.7-3.7C139.8,139.9,139.8,141.3,139.5,142.3"/>
	<polyline class="st0" points="124.3,138 124.1,137.4 124.8,136.9 125,137.4 124.3,138 	"/>
	<polyline class="st0" points="122,133.8 121.8,133.3 122.5,132.6 122.7,133.3 122,133.8 	"/>
	<path class="st0" d="M132.6,125.3c-0.9,1.7-2.9,2.5-3.3,1.2c-0.5-1.2,1-3.4,2.7-3.6C133.2,123,133,124.4,132.6,125.3"/>
	<path class="st0" d="M132.9,118.7c-1.1,2-3.5,2.9-3.9,1.5c-0.4-1.3,1.3-4,3.3-4.1C133.7,116.1,133.5,117.6,132.9,118.7"/>
	<polyline class="st0" points="134.1,111.7 133.7,110.4 135.5,109 135.8,110.4 134.1,111.7 	"/>
	<polyline class="st0" points="138.6,113.2 138.5,113.2 138.2,112.1 138.9,111.5 139.6,110.9 140,112.1 138.6,113.2 	"/>
	<polyline class="st0" points="134.4,103.3 134.2,102.1 135.9,100.9 136,102.1 134.4,103.3 	"/>
	<path class="st0" d="M144.5,100.9c-1.1,1.7-3.2,2.5-3.5,1.3c-0.3-1.2,1.5-3.4,3.2-3.5C145.4,98.7,145,100.1,144.5,100.9"/>
	<polyline class="st0" points="142.2,93.4 142.1,92.3 143.7,91.1 143.9,92.3 142.2,93.4 	"/>
	<polyline class="st0" points="151.2,94.3 151,93.1 152.7,91.9 153,93.1 151.2,94.3 	"/>
	<path class="st0" d="M158,86.2c-0.9,1.3-2.6,1.9-2.8,0.9c-0.2-0.8,1.2-2.6,2.7-2.7C158.8,84.5,158.5,85.5,158,86.2"/>
	<polyline class="st0" points="163.8,82.6 163.7,82.2 164.3,81.9 164.4,82.2 163.8,82.6 	"/>
	<path class="st0" d="M173.8,82c-0.8,1.2-2.5,1.9-2.8,0.9c-0.3-0.9,1.2-2.4,2.4-2.5C174.3,80.5,174.3,81.3,173.8,82"/>
	<polyline class="st0" points="176.1,77.5 176.1,77 176.7,76.5 176.9,77 176.1,77.5 	"/>
	<polyline class="st0" points="170.2,67.3 170.2,66.4 171.7,65.6 171.7,66.4 170.2,67.3 	"/>
	<polyline class="st0" points="181.4,67 181.4,66.7 181.9,66.3 181.9,66.7 181.4,67 	"/>
	<path class="st0" d="M186.6,62.6c-1,1.2-2.6,1.6-2.7,0.8c-0.1-0.6,0.8-1.6,2-2.1c0.1,0.4,0.5,0.4,1.2,0.2
		C187.1,61.7,186.9,62.1,186.6,62.6"/>
	<path class="st0" d="M194.6,59.2c0,0.1-0.1,0.1-0.1,0.2c0-0.1-0.1-0.2-0.1-0.3l-1.6,1l0.1,0.5c-1.4,0.5-1.6-0.2-1.3-0.9
		c0.1-0.3,0.1-0.3,0.3-0.3c0.1,0,0.6-0.2,1.2-0.7c0.4-0.3,0.5-0.6,0.6-0.7c0,0,0,0,0,0c0,0,0.3-0.1,0.7-0.1
		C195.3,57.7,195,58.6,194.6,59.2"/>
	<polyline class="st0" points="198.8,56 198.7,55.4 199.9,54.7 200,55.4 198.8,56 	"/>
	<polyline class="st0" points="185.7,58.9 185.7,58.1 187.1,57.3 187.1,58.1 185.7,58.9 	"/>
	<path class="st0" d="M188.4,60.4c-1,1.2-2.5,1.5-2.5,0.8c0-0.7,1.4-2.1,2.5-2.1C189.1,59.1,188.9,59.8,188.4,60.4"/>
	<path class="st0" d="M193.5,58.1c-1,1.2-2.7,1.7-2.8,0.9c-0.1-0.8,1.5-2.3,2.8-2.4C194.2,56.7,194.1,57.4,193.5,58.1"/>
	<polyline class="st0" points="193,61.1 192.9,60.6 192.8,60.1 194.4,59.1 194.5,59.4 194.6,60.1 193,61.1 	"/>
	<polyline class="st0" points="195,63 194.8,62.3 196,61.5 196.2,62.3 195,63 	"/>
	<polyline class="st0" points="205.5,50.7 205.4,49.9 206.8,49.1 206.9,49.9 205.5,50.7 	"/>
	<path class="st0" d="M203.6,62.8c-0.9,1.4-3,2-3.2,0.9c-0.2-0.9,1.3-2.6,2.8-2.6C204.3,61.1,204,62.2,203.6,62.8"/>
	<path class="st0" d="M211.7,56.7c-0.7,1.1-2.3,1.5-2.5,0.6c-0.2-0.8,1.1-2,2.1-2C212.2,55.3,212.1,56.1,211.7,56.7"/>
	<polyline class="st0" points="214,57.7 213.6,56.9 214.8,56.1 215.2,56.9 214,57.7 	"/>
	<path class="st0" d="M220.8,56.4c-0.7,1.3-2.5,1.8-2.9,0.8c-0.3-0.8,0.8-2.2,2.2-2.3C221.1,54.9,221.1,55.8,220.8,56.4"/>
	<polyline class="st0" points="220.5,63.3 219.8,62.3 221.3,61.3 221.9,62.3 220.5,63.3 	"/>
	<path class="st0" d="M231.3,46.7c-0.7,1.2-2.6,1.7-2.9,0.7c-0.3-0.8,0.9-2.2,2.2-2.3C231.8,45.2,231.7,46.2,231.3,46.7"/>
	<path class="st0" d="M231.7,61.8c-0.5,1.4-2.6,1.9-3.1,0.7c-0.3-0.8,0.5-2.2,2-2.3C231.7,60.2,231.9,61.1,231.7,61.8"/>
	<path class="st0" d="M227.4,55.2c-0.6,1.1-2.2,1.5-2.5,0.5c-0.2-0.7,0.7-1.8,1.8-1.8C227.7,53.9,227.7,54.7,227.4,55.2"/>
	<polyline class="st0" points="233.4,53.4 233.2,53.1 233.6,52.9 233.8,53.1 233.4,53.4 	"/>
	<path class="st0" d="M240.6,51.9c-0.4,1.3-2.3,1.7-2.7,0.6c-0.3-0.7,0.4-2,1.7-2C240.7,50.6,240.8,51.4,240.6,51.9"/>
	<path class="st0" d="M237,59.2c-0.4,1.3-2.5,1.7-2.9,0.7c-0.3-0.8,0.4-2.1,1.8-2.2C237.1,57.7,237.2,58.6,237,59.2"/>
	<polyline class="st0" points="230.6,68.9 229.8,68 231.1,67 231.8,68 230.6,68.9 	"/>
	<polyline class="st0" points="243.9,63 243.2,62.2 244.2,61.4 245,62.2 243.9,63 	"/>
	<polyline class="st0" points="241,70.5 240.5,69.9 241.2,69.4 241.6,69.9 241,70.5 	"/>
	<polyline class="st0" points="253.8,65 253.4,64.7 253.8,64.3 254.2,64.7 253.8,65 	"/>
	<path class="st0" d="M249.7,77c-0.3,1.7-2.7,2.2-3.6,0.8c-0.7-1.1,0.1-2.7,1.8-2.8C249.4,75.1,249.8,76.3,249.7,77"/>
	<path class="st0" d="M254.8,81.5c-0.2,1.8-2.9,2.4-4,0.9c-0.9-1.2,0-2.9,2-3C254.5,79.4,254.9,80.7,254.8,81.5"/>
	<polyline class="st0" points="262,80.8 260.9,79.8 262,78.7 263.1,79.8 262,80.8 	"/>
	<path class="st0" d="M248.9,65.9c-0.2,1.1-1.8,1.4-2.4,0.5c-0.5-0.7,0.1-1.8,1.3-1.8C248.7,64.6,249,65.4,248.9,65.9"/>
	<polyline class="st0" points="252.3,76.3 251.2,75.3 252.4,74.2 253.5,75.3 252.3,76.3 	"/>
	<polyline class="st0" points="261.6,85.4 260.7,84.6 261.6,83.8 262.5,84.6 261.6,85.4 	"/>
	<polyline class="st0" points="255.5,87.5 254.8,86.8 255.5,86.1 256.3,86.8 255.5,87.5 	"/>
	<polyline class="st0" points="256.5,94.3 255.3,93.2 256.5,92.1 257.8,93.2 256.5,94.3 	"/>
	<polyline class="st0" points="235.6,90.7 235.1,90.2 235.7,89.7 236.2,90.2 235.6,90.7 	"/>
	<path class="st0" d="M240.1,97c-0.3,1.7-2.6,2.6-4,1.3c0.3-0.6,0.6-1.4-0.2-2.3c0.5-0.7,1.2-1.1,2.1-1.2
		C239.9,94.8,240.3,96.1,240.1,97"/>
	<polyline class="st0" points="225.2,96.8 224.6,96.2 225.4,95.6 225.9,96.2 225.2,96.8 	"/>
	<polyline class="st0" points="241.1,111.3 240.5,110.8 241.1,110.2 241.7,110.8 241.1,111.3 	"/>
	<polyline class="st0" points="222.3,107 221.9,106.6 222.4,106.2 222.8,106.6 222.3,107 	"/>
	<polyline class="st0" points="216.9,110.7 215.7,109.3 217.4,108 218.7,109.3 216.9,110.7 	"/>
	<polyline class="st0" points="228.7,123.2 227.6,122 228.9,120.9 230,122 228.7,123.2 	"/>
	<polyline class="st0" points="218.5,123.4 217.2,122 218.8,120.7 220.1,122 218.5,123.4 	"/>
	<path class="st0" d="M216.7,127.1c-0.4,1.5-2.5,2.1-3.3,0.9c-0.6-0.9,0-2.7,1.7-2.8C216.5,125.3,216.9,126.4,216.7,127.1"/>
	<polyline class="st0" points="212.6,137.7 211.6,136.7 212.9,135.5 213.9,136.7 212.6,137.7 	"/>
	<path class="st0" d="M206.9,139.1c-0.4,1.5-2.3,2.1-3.1,0.9c-0.6-0.9,0-2.6,1.8-2.7C206.7,137.4,207.1,138.2,206.9,139.1"/>
	<path class="st0" d="M202.9,143.4c-0.4,1.5-2.3,2.1-3.1,0.9c-0.7-1,0.1-2.6,1.7-2.7C202.7,141.6,203.1,142.5,202.9,143.4"/>
	<path class="st0" d="M195.4,140.8c-0.4,1.6-2.6,2.1-3.3,0.8c-0.5-0.9,0.3-2.7,2-2.8C195.2,138.9,195.7,139.9,195.4,140.8"/>
	<path class="st0" d="M188.5,147.2c-0.5,1.9-3.2,2.5-4,0.9c-0.6-1.1,0.3-3.1,2.3-3.2C188.5,145,188.7,146.3,188.5,147.2"/>
	<path class="st0" d="M175.3,142.8c-0.8,2.4-4.1,3.2-5,1.2c-0.8-1.7,1-4.1,3.1-4.1C175.1,139.9,175.8,141.4,175.3,142.8"/>
	<path class="st0" d="M175,163c-0.4,1.7-2.7,2.4-3.5,1.1c-0.6-1.1,0.1-3.1,1.9-3.2C175,161,175.2,162.2,175,163"/>
	<path class="st0" d="M168.6,164.4c-0.6,2.3-3.5,2.9-4.4,1.3c-0.8-1.3,0.2-3.9,2.5-4.1C168.3,161.7,168.9,163.1,168.6,164.4"/>
	<path class="st0" d="M160.8,163.2c-0.6,2-3.1,2.8-4,1.2c-0.8-1.4,0.4-3.7,2.4-3.8C160.8,160.7,161.1,162.3,160.8,163.2"/>
	<polyline class="st0" points="159,175.6 158,174.3 159.4,173.1 160.4,174.3 159,175.6 	"/>
	<path class="st0" d="M150.8,165.4c-0.7,2.4-3.6,3.3-4.6,1.4c-0.9-1.6,0.5-4.3,2.8-4.4C150.6,162.5,151.2,164,150.8,165.4"/>
	<path class="st0" d="M146.8,180.8c-0.5,2.2-3,2.7-3.8,1.2c-0.7-1.3,0.1-3.6,2.2-3.7C146.8,178.4,147,179.9,146.8,180.8"/>
	<polyline class="st0" points="139.9,189.5 139.1,188.3 140.3,187.2 141.1,188.3 139.9,189.5 	"/>
	<path class="st0" d="M126.1,181.8c-0.2,0.8-0.8,1.6-1.8,1.6c-0.3-0.5-0.8-1.2-1.1-1.8l1.8-1.8C126.2,180,126.3,181.1,126.1,181.8"
		/>
	<path class="st0" d="M123.2,187.3c-0.7,2.3-3.2,3.1-4.1,1.3c-0.8-1.6,0.5-4.3,2.5-4.4C123.2,184.2,123.6,186,123.2,187.3"/>
	<polyline class="st0" points="128.3,205.5 127.2,203.9 127.5,203.6 128.7,202.3 129.2,203 129.9,203.9 128.3,205.5 	"/>
	<polyline class="st0" points="115.6,203.3 115.2,202.7 115.8,202.2 116.2,202.7 115.6,203.3 	"/>
	<polyline class="st0" points="109.4,207.4 109.1,206.9 109.5,206.4 109.8,206.9 109.4,207.4 	"/>
	<path class="st0" d="M103.6,213.2c-0.3,1.8-2,2.3-2.7,1.2c-0.6-1.1-0.1-3.4,1.5-3.5C103.5,211,103.7,212.3,103.6,213.2"/>
	<path class="st0" d="M111.7,228.4c-0.3,2-2.1,2.9-3.2,1.6c-1.1-1.4-0.4-4.3,1.5-4.4C111.5,225.7,111.9,227.3,111.7,228.4"/>
	<polyline class="st0" points="114,258.7 112.6,256.9 114,255.2 115.3,256.9 114,258.7 	"/>
	<polyline class="st0" points="120.7,254 119.3,252.1 120.8,250.3 122.2,252.1 120.7,254 	"/>
	<polyline class="st0" points="126.4,255.6 125,253.9 126.4,252.1 127.8,253.9 126.4,255.6 	"/>
	<path class="st0" d="M126.8,279c0,1.8-1.8,2.7-3,1.4c-1.2-1.4-0.6-3.7,1-3.8C126.2,276.7,126.8,278.1,126.8,279"/>
	<polyline class="st0" points="136.8,261.9 136.2,261.2 136.8,260.5 137.5,261.2 136.8,261.9 	"/>
	<path class="st0" d="M138,280.6c-0.1,1.9-2,2.8-3.3,1.4c-1.2-1.3-0.7-4,1.2-4.1C137.4,278,138,279.6,138,280.6"/>
	<polyline class="st0" points="141.5,282.5 140.5,281.6 141.4,280.5 142.3,281.6 141.5,282.5 	"/>
	<path class="st0" d="M154.1,268.6c-0.1,1.9-2.2,2.7-3.4,1.4c-1.1-1.2-0.8-3.7,1.3-3.8C153.6,266.2,154.1,267.7,154.1,268.6"/>
	<path class="st0" d="M155.2,286.5c-0.1,1.5-1.8,2.5-3,1.2c-1-1.1-0.8-3.3,1.1-3.4C154.6,284.4,155.2,285.6,155.2,286.5"/>
	<path class="st0" d="M172.3,291.1c-0.1,2.3-2.8,3.4-4.5,1.7c-1.6-1.6-1-4.8,1.6-4.9C171.4,288,172.4,289.8,172.3,291.1"/>
	<path class="st0" d="M193.1,293.1c-0.1,2.4-3.1,3.3-4.7,1.4c-1.4-1.6-0.7-4.4,1.9-4.5C192.1,290.1,193.2,291.6,193.1,293.1"/>
	<polyline class="st0" points="195,280.6 193.8,279.4 194.9,278.3 196.1,279.4 195,280.6 	"/>
	<polyline class="st0" points="200.5,276.5 199.5,275.5 200.4,274.5 201.4,275.5 200.5,276.5 	"/>
	<path class="st0" d="M207.1,269.3c-0.2,1.7-2.5,2.6-3.7,1.1c-0.9-1.1-0.5-3.3,1.5-3.4C206.6,267,207.2,268.4,207.1,269.3"/>
	<polyline class="st0" points="214.7,276.1 213.1,274.5 214.6,273 216.3,274.5 214.7,276.1 	"/>
	<path class="st0" d="M224.7,269.5c-0.2,2.2-3,3-4.4,1.3c-1.2-1.4-0.6-3.9,1.9-4.1C224.2,266.9,224.8,268.5,224.7,269.5"/>
	<path class="st0" d="M223.5,246.5c-0.3,2.8-3.8,3.9-5.6,1.7c-1.5-1.9-0.5-5,2.5-5.1C222.8,243.1,223.7,245.1,223.5,246.5"/>
	<polyline class="st0" points="237.1,266.2 235.8,264.9 237.1,263.6 238.4,264.9 237.1,266.2 	"/>
	<path class="st0" d="M244.4,255.3c-0.3,2.6-3.6,3.6-5.3,1.6c-1.5-1.7-0.5-4.6,2.3-4.7C243.4,252.2,244.5,253.8,244.4,255.3"/>
	<polyline class="st0" points="249.3,253.3 247.6,251.6 249.3,249.8 251.1,251.6 249.3,253.3 	"/>
	<polyline class="st0" points="263.8,233.2 261.9,231.4 263.8,229.6 265.7,231.4 263.8,233.2 	"/>
	<path class="st0" d="M274.4,222.4c-0.2,2.2-3.3,3.1-4.8,1.3c-1.3-1.5-0.5-4.1,2-4.2C273.9,219.6,274.5,221.3,274.4,222.4"/>
	<polyline class="st0" points="281.5,215.6 280.3,214.5 281.4,213.4 282.7,214.5 281.5,215.6 	"/>
	<polyline class="st0" points="248.3,206.7 247.7,206.1 248.3,205.4 249.1,206.1 248.3,206.7 	"/>
	<polyline class="st0" points="264.5,203.3 262.5,201.5 264.5,199.6 266.5,201.5 264.5,203.3 	"/>
	<path class="st0" d="M257.4,194.7c-0.2,1.8-2.7,2.2-3.7,1c-0.8-1-0.6-3.1,1.6-3.2C257.2,192.6,257.5,194,257.4,194.7"/>
	<path class="st0" d="M271,189.9c-0.2,2.3-3.3,3-4.7,1.1c-1.1-1.4-0.2-3.6,2.1-3.7C270.4,187.3,271.1,188.9,271,189.9"/>
	<path class="st0" d="M264.4,180.3c-0.2,2.2-3.5,2.9-4.9,1.1c-1-1.3-0.3-3.7,2.2-3.8C263.8,177.7,264.6,179.3,264.4,180.3"/>
	<polyline class="st0" points="282.2,176.4 280.4,174.8 282.1,173.2 283.8,174.8 282.2,176.4 	"/>
	<path class="st0" d="M263.5,167.8c-0.2,1.8-2.7,2.4-3.8,0.9c-0.9-1.2-0.1-2.9,1.7-3C263,165.8,263.5,167,263.5,167.8"/>
	<polyline class="st0" points="281.5,159.9 280.6,158.9 281.4,158.1 282.4,158.9 281.5,159.9 	"/>
	<polyline class="st0" points="256.3,151.5 255,150.3 256.4,149.1 257.7,150.3 256.3,151.5 	"/>
	<path class="st0" d="M264.7,127.8c-0.2,2.1-3,2.8-4.4,1.2c-1.3-1.4-0.4-3.6,1.9-3.7C263.9,125.4,264.8,126.7,264.7,127.8"/>
	<polyline class="st0" points="250.2,130 248.6,128.5 250.3,127 251.9,128.5 250.2,130 	"/>
	<path class="st0" d="M246.8,127.3c-0.2,1.7-2.7,2.4-3.8,1.1c-1-1.2-0.2-3,1.7-3.1C246.2,125.3,246.9,126.4,246.8,127.3"/>
	<path class="st0" d="M240.2,126.8c-0.3,1.8-3,2.4-4,0.9c-0.7-1.1-0.1-3,2-3.1C239.9,124.7,240.3,126,240.2,126.8"/>
	<path class="st0" d="M246.7,110.2c-0.2,1.8-2.8,2.6-3.9,1.1c-0.8-1.1-0.2-3.1,1.9-3.2C246.3,108.2,246.8,109.4,246.7,110.2"/>
	<path class="st0" d="M228.5,118.9c-0.5,2.2-3.8,3-4.9,1.1c-0.8-1.4,0.1-3.7,2.6-3.8C228.3,116.2,228.7,117.9,228.5,118.9"/>
	<polyline class="st0" points="219.9,116.6 219.4,116.1 220,115.6 220.5,116.1 219.9,116.6 	"/>
	<path class="st0" d="M236.4,97.5c-0.3,2-3.3,2.9-4.5,1.3c-1-1.3,0.1-3.5,2.3-3.6C236.1,95.3,236.5,96.6,236.4,97.5"/>
	<path class="st0" d="M222.6,101.6c-0.4,1.3-2.2,1.7-2.8,0.6c-0.5-0.8,0.3-2.2,1.6-2.2C222.5,100.1,222.8,101,222.6,101.6"/>
	<polyline class="st0" points="207.5,104.8 206.7,103.8 208,102.9 208.7,103.8 207.5,104.8 	"/>
	<polyline class="st0" points="206.4,99.8 205.5,98.6 207,97.4 208,98.6 206.4,99.8 	"/>
	<path class="st0" d="M205.1,94.9c-0.7,1.9-3.3,2.6-4.1,1.2c-0.7-1.3,0.6-3.3,2.6-3.4C205.3,92.7,205.4,94.1,205.1,94.9"/>
	<polyline class="st0" points="217.5,77.3 217.1,76.7 217.9,76.2 218.2,76.7 217.5,77.3 	"/>
	<polyline class="st0" points="195.6,89 195,88 196.4,87 197,88 195.6,89 	"/>
	<polyline class="st0" points="190,86.3 189.8,85.8 190.4,85.4 190.7,85.8 190,86.3 	"/>
	<polyline class="st0" points="191.5,70.1 191.2,69.1 192.7,68.1 193.1,69.1 191.5,70.1 	"/>
	<path class="st0" d="M187.6,70.9c-1.1,1.6-3.4,2.2-3.6,1c-0.2-1,1.5-2.9,3.2-3C188.5,68.9,188.1,70.1,187.6,70.9"/>
	<polyline class="st0" points="181.6,72 181.4,71.2 182.6,70.4 182.8,71.2 181.6,72 	"/>
	<polyline class="st0" points="175.9,72.4 175.9,72 176.4,71.7 176.5,72 175.9,72.4 	"/>
	<polyline class="st0" points="162.5,92.3 162.2,91.6 163.3,90.8 163.5,91.6 162.5,92.3 	"/>
	<path class="st0" d="M165,78c-1.1,1.4-2.9,2-3,1c-0.1-0.4,0.2-0.9,0.2-0.9c0,0,0.1-0.1,0.2-0.1c0.6-0.3,1.5-0.8,2.5-1.9l0,0h0h0h0
		h0h0h0h0C165.8,76.3,165.6,77.2,165,78"/>
	<polyline class="st0" points="151.9,89.6 151.8,88.8 152.8,88 152.9,88.8 151.9,89.6 	"/>
	<polyline class="st0" points="151.1,83.2 151,82.4 152.1,81.7 152.2,82.4 151.1,83.2 	"/>
	<polyline class="st0" points="148.8,78.8 148.9,78.1 149.9,77.5 149.9,78.1 148.8,78.8 	"/>
	<path class="st0" d="M131.7,94.5c-1.3,1.8-3.1,2.4-3.3,1.4c-0.2-1.1,1.8-3.5,3.4-3.6C132.9,92.4,132.4,93.7,131.7,94.5"/>
	<path class="st0" d="M124.5,100.7c-1.1,1.5-2.6,2-2.7,1.2c-0.1-0.9,1.5-3,2.8-3.1C125.5,98.8,125,99.9,124.5,100.7"/>
	<path class="st0" d="M118.3,109.1c-0.9,1.3-2.3,2-2.5,1.1c-0.2-0.9,1.2-2.8,2.5-2.9C119.1,107.4,118.9,108.3,118.3,109.1"/>
	<path class="st0" d="M114.8,111.6c-1.2,1.8-2.9,2.4-3.1,1.4c-0.3-1.1,1.6-3.6,3.1-3.7C115.8,109.3,115.3,110.7,114.8,111.6"/>
	<polyline class="st0" points="107.3,120.9 107.2,119.9 108.4,118.9 108.5,119.9 107.3,120.9 	"/>
	<polyline class="st0" points="102,110.9 102.1,109.8 103.5,108.6 103.4,109.8 102,110.9 	"/>
	<polyline class="st0" points="97.4,114.3 97.5,113.5 98.5,112.6 98.4,113.5 97.4,114.3 	"/>
	<path class="st0" d="M93.4,120c-1.1,1.8-2.8,2.7-2.9,1.7c-0.2-1.3,2-4.2,3.3-4.3C94.7,117.5,94.1,119,93.4,120"/>
	<polyline class="st0" points="87.6,127.3 87.7,126.3 88.6,125.5 88.6,126.3 87.6,127.3 	"/>
	<path class="st0" d="M85.5,139.9c-0.8,1.6-2.4,2.7-2.7,1.6c-0.4-1.2,1.2-3.9,2.6-4.1C86.3,137.6,85.9,139,85.5,139.9"/>
	<path class="st0" d="M79.4,143.9c-1,2.1-2.6,2.8-2.9,1.8c-0.4-1.2,1.4-4.5,2.9-4.6C80.4,141.2,80,142.8,79.4,143.9"/>
	<polyline class="st0" points="72.8,136.8 72.9,135.6 74,134.5 73.9,135.6 72.8,136.8 	"/>
	<path class="st0" d="M363.3,128.4c0.8,3.2-1.9,4.9-4.9,3.1c-3.7-2.2-3.9-7-1.1-7.7c0.2-0.1,0.5-0.1,0.7-0.1
		C360.9,123.9,362.9,126.6,363.3,128.4"/>
	<path class="st0" d="M367.2,155.5c0.6,4.4-3.6,6.5-7.3,3.7c-4-3-3.7-9.2,0.5-9.7c0.1,0,0.3,0,0.5,0c0.3,0,0.5,0,0.9,0.1
		c-2.8,0.4-2.4,3.5-0.6,5c1.9,1.7,4.3,0.8,4.2-1.5c-0.1-1.2-0.8-2.1-1.1-2.4C366,152.1,367,153.7,367.2,155.5"/>
	<path class="st0" d="M321.5,123.2c0.3,2.3-2.4,3.3-4.4,1.7c-2-1.7-1.6-4.5,0.7-4.7c0.1,0,0.2,0,0.3,0
		C320.2,120.3,321.4,122,321.5,123.2"/>
	<path class="st0" d="M363.7,192.8c0.1,2.8-2.9,4-4.8,2c-1.8-1.8-1.6-5.4,1.4-5.6C362.4,189.3,363.6,191.1,363.7,192.8"/>
	<path class="st0" d="M411.7,151.7c0.7,2.4-0.8,3.8-2.7,2.7c-2-1.2-3.5-4.7-2-6.1c1,0.9,1.7,0.6,1.8-0.2
		C410.9,149.1,411.6,151.3,411.7,151.7"/>
	<path class="st0" d="M365.4,152.8c0.4,2.3-1.9,3.5-3.9,2c-2.2-1.6-2.1-4.9,0.1-5.2c0.1,0,0.2,0,0.3,0
		C364.1,149.7,365.2,151.6,365.4,152.8"/>
	<path class="st0" d="M402.7,143.5c1,3-0.6,5-3.1,3.8c-3.6-1.7-5.3-7.5-2.4-8.3c0.2-0.1,0.4-0.1,0.6-0.1
		C400,139,402,141.4,402.7,143.5"/>
	<path class="st0" d="M406.2,127.6c1.1,2.7,0.1,4.5-2.1,3.7c-3.3-1.2-6-6.9-3.8-8.1c0.3-0.1,0.5-0.2,0.8-0.2
		C403.5,123.1,405.5,125.9,406.2,127.6"/>
	<path class="st0" d="M384.1,126.4c1.7,5.1-1.7,8.1-6.5,5.6c-6-3.1-8.5-12-3.7-13.3c0.3-0.1,0.8-0.1,1.1-0.1
		C379.1,118.8,382.9,122.7,384.1,126.4"/>
	<path class="st0" d="M343.1,82.2c1.1,2.3-0.2,3.7-2.7,2.8c-3.3-1.2-5.4-5.4-3.2-6.3c0.3-0.1,0.6-0.1,0.8-0.1
		C340.3,78.7,342.3,80.8,343.1,82.2"/>
	<path class="st0" d="M342.6,111.8c0.3,1.3-0.9,2.1-2.2,1.3c-1.5-0.9-1.8-2.9-0.5-3.2c0.1,0,0.2,0,0.3,0
		C341.6,110,342.4,111.1,342.6,111.8"/>
	<path class="st0" d="M359.2,137.7c0.9,4.5-3.5,6.7-7.5,3.8c-4.4-3.2-4.4-9.5,0.1-10c0.2,0,0.4,0,0.5,0
		C356.3,131.7,358.8,135.3,359.2,137.7"/>
	<polyline class="st0" points="371.5,101.1 369.8,99.9 370.1,98.6 371.8,99.9 371.5,101.1 	"/>
	<path class="st0" d="M391.7,116.6c1.4,3.1,0,5.2-2.8,4.2c-4.2-1.4-7.4-8-4.7-9.5c0.3-0.2,0.7-0.2,1-0.2
		C388.2,111.3,390.8,114.4,391.7,116.6"/>
	<path class="st0" d="M373.7,144.1c1,4.9-3.3,7.6-7.7,4.8c-5.2-3.3-6-10.8-1.3-12c0.3-0.1,0.8-0.1,1.1-0.1
		C370.3,137.1,373.1,141.3,373.7,144.1"/>
	<path class="st0" d="M408.7,147.3c0.4,1.2-0.3,1.9-1.2,1.4c-1.3-0.7-1.9-2.9-1-3.3c0.1,0,0.2,0,0.2,0
		C407.7,145.5,408.4,146.6,408.7,147.3"/>
	<path class="st0" d="M416.4,169.1c0.6,2.7-1,4.2-3,2.9c-2.7-1.7-3.4-6.6-0.9-6.9c0.1,0,0.2,0,0.3,0
		C414.5,165.2,416,167.2,416.4,169.1"/>
	<path class="st0" d="M415.1,190.4c0.7,5.4-3.4,8.2-7.3,5.2c-4.8-3.7-4.9-12.4-0.1-13.1c0.2,0,0.4,0,0.5,0
		C412.6,182.8,414.7,187.5,415.1,190.4"/>
	<path class="st0" d="M425.9,209.9c0.1,2-1.3,3.1-2.6,2c-1.6-1.4-1.7-4.8,0.4-4.9C425.2,207,425.8,208.7,425.9,209.9"/>
	<path class="st0" d="M400.8,224.4c0,4.5-4,6.6-7,3.8c-3.2-3.1-2.5-9.5,2.1-9.8C399.5,218.6,400.8,222.2,400.8,224.4"/>
	<path class="st0" d="M390.1,241c-0.2,3.1-3.3,5-5.5,2.4c-2-2.3-1.1-6.6,2.1-6.8C389.2,236.8,390.2,239.3,390.1,241"/>
	<path class="st0" d="M434.6,251.3c-0.8,1.1-1.3,2.7-1.3,4.4c-1.3-1.2-1-4.5,0.8-4.7C434.4,251,434.5,251.1,434.6,251.3
		C434.7,251.2,434.6,251.2,434.6,251.3"/>
	<path class="st0" d="M457.9,271c-0.3,2.3-1.7,3.7-2.7,2.6c-1.3-1.5-0.7-6.1,1.2-6.3C457.7,267.5,458,269.6,457.9,271"/>
	<path class="st0" d="M479.1,268.3c-0.5,5.9-2.9,9.6-4.7,7.3c-2.7-3.4-1.8-16.6,2.2-17.2C478.8,258.8,479.4,264.5,479.1,268.3"/>
	<path class="st0" d="M485.2,238.8c0.1,3.7-0.6,6.2-1.5,5.5c-1.5-1.1-2.8-11.8-0.5-12.3C484.5,232.3,485.1,236.2,485.2,238.8"/>
	<path class="st0" d="M483.2,219.1c0.2,1.8,0,3.1-0.5,2.8c-0.8-0.6-1.9-6-0.8-6.2C482.5,215.8,483,217.5,483.2,219.1"/>
	<polyline class="st0" points="459.8,186.3 458.5,184.5 458.8,182.8 460.1,184.5 459.8,186.3 	"/>
	<path class="st0" d="M479.4,181.3c0.4,1.4,1.1,3.8,0.8,4c-0.8-0.3-3.5-8.6-2.9-8.9C477.7,176.6,478.8,179.4,479.4,181.3"/>
	<path class="st0" d="M463.6,150.5c1.1,2.4,1.4,4.1,0.7,3.9c-1.4-0.5-5.1-8.1-4.2-8.6c0,0,0.1,0,0.1,0
		C461.2,145.9,462.8,148.7,463.6,150.5"/>
	<path class="st0" d="M448.1,126.7c2.1,3.5,2.8,6.1,1.5,5.8c-1.3-0.3-4.1-3.8-4.9-5.1c0-0.1-0.1-0.2-0.1-0.2c-0.2-0.6-0.9-2-2.1-3.6
		c-0.5-0.6-1.6-3.4-1-3.8c0.1,0,0.2-0.1,0.2-0.1c0.5,0,0.6,0.2,0.8,0.5c0.2,0.2,1,1.2,1.3,1.1C445.4,122.7,447.1,125.1,448.1,126.7"
		/>
	<path class="st0" d="M424.8,92.6c0.9,1,2.3,2.7,2.2,3c-0.3,0.1-1.2-0.7-1.2-0.7c0,0-0.1-0.1-0.1-0.2c-0.2-0.3-1-1.3-2.4-2.9
		c-1.2-1.3-2.2-2.3-2.4-2.4c-0.3-0.3-0.3-0.3-0.3-0.4c0,0,0,0,0.1,0C421.3,89.1,423.3,90.9,424.8,92.6"/>
	<path class="st0" d="M415.1,80.7c0.4,0.4,0.8,0.7,1.2,1.1c-0.3-0.2-7.6-6.7-7.6-6.7c0.5,0.3,0.9,0.7,1.3,1.1
		C411.7,77.6,413.4,79.2,415.1,80.7"/>
	<path class="st0" d="M442.4,110.2c0.3,0.4,0.6,0.7,0.8,1.1c-0.3-0.2-9-11-9.1-11c0.1,0.1,0.2,0.2,1,1.1
		C437.6,104.2,440,107.1,442.4,110.2"/>
	<path class="st0" d="M392.9,64.1c2,1.5,4.2,3.3,4.2,3.7c-0.7,0.3-11.1-7.3-11.2-8.1c0,0,0,0,0.1,0
		C386.7,59.8,390.2,62.1,392.9,64.1"/>
	<path class="st0" d="M414.4,95.5c2,2.5,2.5,4.4,1.2,4.3c-1.4-0.2-3.8-2.5-4-2.6c0-0.1-0.1-0.1-0.1-0.2c-0.3-0.7-1.3-2.2-2.9-3.5
		c-0.8-0.6-1.5-2.4-1-2.8c0.1-0.1,0.3-0.1,0.4-0.1C409.7,90.5,412.8,93.5,414.4,95.5"/>
	<path class="st0" d="M453.5,135.8c0.9,1.6,1.2,2.8,0.6,2.7c-1.2-0.3-4.1-5.5-3.3-5.9c0,0,0.1,0,0.1,0
		C451.5,132.7,452.7,134.3,453.5,135.8"/>
	<path class="st0" d="M457,149.3c1.1,2.4,1.1,4.1,0,3.6c-2-0.9-5.1-7.7-3.7-8.1c0,0,0.1,0,0.1,0C454.6,145,456.2,147.5,457,149.3"/>
	<path class="st0" d="M440.6,153.4c0.3,0.9,0.2,1.8-0.6,1.4c-1.1-0.5-2.1-2.9-1.3-3.3c0,0,0.1,0,0.2,0l1.6,1.8
		C440.5,153.3,440.5,153.4,440.6,153.4"/>
	<path class="st0" d="M460.4,211.8c0.3,2.3-0.7,3.7-1.9,2.8c-1.8-1.4-2.2-6.2-0.6-6.6c0.1,0,0.1,0,0.2,0
		C459.4,208.2,460.3,210.4,460.4,211.8"/>
	<path class="st0" d="M431.6,240.8c-0.1,2.8-2.2,4.4-3.9,2.7c-2-1.9-1.6-6.8,1.2-7C430.8,236.7,431.6,239.1,431.6,240.8"/>
	<path class="st0" d="M439.8,255.9c-0.3,4-3.3,6-5.3,3.5c-2.2-2.8-1.3-9.1,2-9.3C439.1,250.4,440,253.7,439.8,255.9"/>
	<path class="st0" d="M439.5,277c-0.8,5.5-5.1,8.1-7.6,4.6c-2.7-3.8-0.9-11.9,3.7-12.3C439,269.5,439.9,273.9,439.5,277"/>
	<path class="st0" d="M440.5,342.3c-1.8,4.4-5.5,6.5-6.5,3.8c-1.2-3.1,1.9-9.6,5.4-9.9C441.6,336.3,441.6,339.4,440.5,342.3"/>
	<path class="st0" d="M466.2,332.1c-1.4,3.9-3.7,6.3-4.5,4.8c-1.2-2.2,1.8-10.9,4.5-11.3C467.9,325.8,467.1,329.7,466.2,332.1"/>
	<path class="st0" d="M488.6,291.5c0,0.2-0.1,0.5-0.1,0.7c-0.1-0.6,1.4-9.9,1.4-10c0,0.2,0,0.5-0.1,0.7
		C489.5,285.8,489.1,288.6,488.6,291.5"/>
	<path class="st0" d="M447.6,117.2c0.7,1,2.1,2.9,2.2,3.2c-0.5-0.4-5.2-7.2-5.2-7.2C445,113.6,447,116.3,447.6,117.2"/>
	<path class="st0" d="M438.2,105.2c0.3,0.3,2.7,3.3,2.9,3.9c-0.5,0-6.9-8-7.1-8.6c0,0,0,0,0,0C434.5,100.8,436.8,103.4,438.2,105.2"
		/>
	<path class="st0" d="M443.1,119.3c0.8,1.2,1.1,2.1,0.7,2c-0.9-0.2-3.5-4.1-3-4.4c0,0,0,0,0.1,0C441.3,117,442.4,118.2,443.1,119.3"
		/>
	<path class="st0" d="M423.4,91.9c2.4,2.6,3.8,4.7,3.1,4.7c-1.5,0.1-10.7-9.6-9.8-10.3c0,0,0.1,0,0.1,0
		C417.8,86.5,421,89.3,423.4,91.9"/>
	<path class="st0" d="M380.9,55.7c2.3,1.5,4.7,3.2,4.8,3.6c-1.1,0-12.2-7.3-12.4-7.8c0,0,0,0,0,0C374.1,51.6,377.7,53.6,380.9,55.7"
		/>
	<path class="st0" d="M390,71.9c2.7,2.5,3.8,4.5,2.5,4.6c-2.9,0-12.8-8.6-11.3-9.8c0.1-0.1,0.2-0.1,0.4-0.1
		C383.5,66.7,387.4,69.4,390,71.9"/>
	<path class="st0" d="M372,58.1c1.8,1.3,2.7,2.4,2.1,2.6c-1.2,0.4-8.7-4.9-8-5.6c0,0,0.1,0,0.2-0.1C367.5,55.1,370.2,56.7,372,58.1"
		/>
	<path class="st0" d="M339.9,37.3c2.5,1.1,5.1,2.5,5.3,3c-1.3,0.6-14.9-6.4-15-6.5c0,0,0.1,0,0.1-0.1
		C331.5,33.9,336.2,35.6,339.9,37.3"/>
	<path class="st0" d="M332.3,36.6c0.3,0.2,1.9,0.9,1.9,1.2c-0.3,0.2-4.4-1.6-5.7-2.4c1.1,0.3,1.3,0.3,1.3,0.2
		C330.2,35.6,331.1,36,332.3,36.6"/>
	<path class="st0" d="M344.3,46c0.8,0.5,1.1,0.9,0.9,1c-0.6,0.1-3.7-1.7-3.5-2.1c0,0,0.1,0,0.1-0.1C342.3,44.8,343.5,45.5,344.3,46"
		/>
	<polyline class="st0" points="325.4,32.3 323.8,31.8 322.6,31.3 324.3,31.8 325.4,32.3 	"/>
	<path class="st0" d="M325.6,41.7c1.3,0.9,1.8,1.7,1.2,1.8c-1.4,0.2-6.9-3.2-6.2-3.9c0.1-0.1,0.2-0.1,0.3-0.1
		C322.1,39.6,324.3,40.7,325.6,41.7"/>
	<path class="st0" d="M367.6,61.1c0.8,0.7,1.1,1.2,0.7,1.3c-0.9,0-3.8-2.2-3.5-2.7c0,0,0.1-0.1,0.2-0.1
		C365.7,59.6,367,60.5,367.6,61.1"/>
	<path class="st0" d="M328.2,36c1,0.5,1.5,0.8,1.3,0.9c-0.3,0.1-4.2-1.5-4.1-1.9c0,0,0,0,0,0C325.9,35,327.2,35.5,328.2,36"/>
	<path class="st0" d="M326.3,33.7c1.3,0.6,3.5,1.6,3.5,1.9c-0.6,0.3-9.8-3.4-10-4c0,0,0.1,0,0.1,0C320.9,31.6,324.1,32.7,326.3,33.7
		"/>
	<path class="st0" d="M360.6,49.8c2.1,1.3,3.2,2.4,2.8,2.6c-1.1,0.4-9.9-4.9-9.4-5.7c0,0,0.1,0,0.2-0.1
		C355.3,46.8,358.4,48.4,360.6,49.8"/>
	<path class="st0" d="M386.2,64.7c2.5,2,3.8,3.6,2.9,3.7c-1.8,0-10.9-6.9-10.3-7.9c0-0.1,0.1-0.1,0.2-0.1
		C380.3,60.6,383.8,62.8,386.2,64.7"/>
	<path class="st0" d="M378.5,56.4c1.3,0.9,2,1.5,2.4,1.7c-2.5-1.6-5.2-3.1-5.4-2.8c0,0.2,0.2,0.5,1.5,1.5c-1.8-1.2-5-3.4-5.2-4
		c0,0,0,0,0,0c0,0,0.1,0,0.1,0C372.8,52.9,376.1,54.7,378.5,56.4"/>
	<path class="st0" d="M342.4,36.1c2.1,0.8,4.7,2,5.4,2.4c-0.4,0.2-13.1-5.1-13.2-5.2C335.1,33.4,338.7,34.6,342.4,36.1"/>
	<path class="st0" d="M382.1,58.9c2.4,1.7,3.9,3.1,3.3,3.1c-0.8,0-10-5.8-10-6.8c0,0,0.1,0,0.1,0C376.5,55.3,379.7,57.2,382.1,58.9"
		/>
	<path class="st0" d="M400.1,71.4c2.7,2.3,4.3,4.1,3.6,4.1c-1.4,0-11.5-8.2-11-9c0,0,0.1,0,0.1,0C393.9,66.6,397.5,69.2,400.1,71.4"
		/>
	<path class="st0" d="M384.6,57.5c1.7,1.1,3.6,2.4,3.8,2.7c-0.6,0-9.2-5.9-9.2-5.9c0,0,0,0,0,0C379.6,54.4,382.2,55.9,384.6,57.5"/>
	<path class="st0" d="M415.2,81.5c2.2,2.1,4.7,4.6,4.7,5.1c-0.6,0.3-10.2-8.4-12-10.7c0.8,1,3.8,3.6,4.5,3.8c-0.2-0.7-4-3.8-4.5-4
		c0,0,0,0,0,0.1c-0.1-0.2-0.1-0.2-0.1-0.3c0,0,0,0,0,0C408.6,75.7,412.3,78.7,415.2,81.5"/>
	<path class="st0" d="M365.4,47c1.4,0.8,3.1,1.8,3.5,2.1c0,0,0,0,0,0.1c-0.9-0.1-8.3-4.2-9-4.8c0,0,0,0,0,0
		C360.5,44.5,363.3,45.9,365.4,47"/>
	<path class="st0" d="M395.9,65c0.4,0.3,0.7,0.5,1.1,0.8c0,0,0,0,0.1,0l-6.3-4.5c0,0,0.1,0,0.1,0.1C392.4,62.5,394.2,63.7,395.9,65"
		/>
	<path class="st0" d="M384.4,59.9c0.3,0.2,1.6,1.2,1.5,1.3c-0.4,0.1-4.4-2.7-4.3-2.9c0,0,0,0,0,0C382,58.4,383.3,59.2,384.4,59.9"/>
	<path class="st0" d="M410.6,77.9c0.6,0.6,1.7,1.6,1.7,1.8c-0.5,0-4.5-3.7-4.6-4c0,0,0,0,0,0l0,0C408.1,75.8,409.5,76.9,410.6,77.9"
		/>
	<path class="st0" d="M393.3,63.6c0.7,0.5,2,1.5,2.1,1.7c-0.4,0-5.1-3.5-5.3-3.8c0,0,0,0,0,0C390.4,61.6,392,62.6,393.3,63.6"/>
	<path class="st0" d="M428.3,94.1c0.6,0.6,1.6,1.8,1.7,2c-0.3,0-4.1-4.2-4.2-4.5c0,0,0,0,0,0C426,91.7,427.4,93.1,428.3,94.1"/>
	<path class="st0" d="M389.1,65.2c2,1.6,3.1,2.9,2.5,2.9c-1.3,0-8.6-5.6-8.3-6.3c0,0,0.1-0.1,0.1-0.1
		C384.4,61.9,387.1,63.7,389.1,65.2"/>
	<path class="st0" d="M416.4,91c2,2.2,2.8,4,2,4c-1.8,0-9.2-7.7-8.2-8.7c0.1-0.1,0.2-0.1,0.2-0.1C411.8,86.4,414.7,89.1,416.4,91"/>
	<path class="st0" d="M443.8,125.5c1.1,1.9,1.4,3.3,0.6,3.2c-1.6-0.4-5.3-6.1-4.4-6.9c0,0,0.1-0.1,0.2-0.1
		C441.1,121.8,442.7,123.7,443.8,125.5"/>
	<path class="st0" d="M428.9,107.7c1.2,1.7,1.6,2.9,0.8,2.8c-1.6-0.3-5.4-5.3-4.6-6c0,0,0.1-0.1,0.2-0.1
		C426.2,104.6,428,106.4,428.9,107.7"/>
	<path class="st0" d="M410.6,95.4c1.3,1.6,1.5,2.9,0.6,2.7c-1.9-0.3-6-5.2-4.9-5.9c0.1,0,0.2-0.1,0.2-0.1
		C407.6,92.3,409.6,94.2,410.6,95.4"/>
	<path class="st0" d="M380.8,68.8c1,1,1.4,1.7,0.9,1.7c-1.2,0-5-3.2-4.5-3.8c0-0.1,0.1-0.1,0.2-0.1
		C378.2,66.7,379.9,67.9,380.8,68.8"/>
	<path class="st0" d="M400.4,108.4c1,1.7,0.6,3-0.8,2.6c-2.3-0.6-5-4.8-3.6-5.7c0.2-0.1,0.3-0.1,0.5-0.1
		C398,105.3,399.7,107.2,400.4,108.4"/>
	<path class="st0" d="M368.2,69.6c2.1,2.3,2.4,4.1,0.7,4.1c-3.4,0-11.1-7.2-9.2-8.7c0.2-0.2,0.5-0.2,0.7-0.2
		C362.6,65,366.2,67.4,368.2,69.6"/>
	<path class="st0" d="M378.4,100.4c1.3,2.4,0.3,4-1.9,3.3c-3.3-1.1-6.3-6.2-4.2-7.2c0.3-0.1,0.5-0.2,0.8-0.2
		C375.4,96.5,377.6,98.8,378.4,100.4"/>
	<path class="st0" d="M417.4,413.7c-2.2,2.4-4.5,3.9-4.6,2.9c-0.1-1.3,4.7-6.8,6.6-7C420.4,409.8,418.9,412.1,417.4,413.7"/>
	<path class="st0" d="M395.3,434.7c-2.9,2.5-5.8,4-5.7,3.1c0.2-1.2,6.4-7,8.7-7.3c0.1,0,0.1,0,0.2,0c-1.5,0.5-4.7,3.5-4.6,4.2
		c0.7,0.2,3.3-1.8,4.4-3.2C398,431.9,397.3,432.9,395.3,434.7"/>
	<path class="st0" d="M402.9,409.2c-1.4,1.7-3.5,2.9-3.6,1.8c-0.2-1.3,2.5-4.4,4.2-4.6C404.5,406.5,403.8,408.1,402.9,409.2"/>
	<path class="st0" d="M363,456.8c-1.2,0.7-3,1.6-3.2,1.5c-0.1-0.5,4.2-3.2,5.3-3.3c0.3,0-0.3,0.6-0.7,0.9
		C364,456.2,363.5,456.5,363,456.8"/>
	<path class="st0" d="M408.5,432c-0.8,0.7-2.5,2.1-2.8,2.2c0-0.3,4-3.7,5.3-4.6c-0.4,0.4-0.4,0.4-0.4,0.4c0.1,0,0.3-0.2,0.7-0.5
		C410.8,430,409.5,431.2,408.5,432"/>
	<path class="st0" d="M397,432.8c-1.6,1.4-3.2,2.3-3.2,1.8c0.1-0.8,3.7-4.1,4.8-4.1C399.2,430.5,398.2,431.7,397,432.8"/>
	<path class="st0" d="M414.4,426.1c-1.3,1.2-3.5,3.1-3.8,3c-0.1-0.6,6.2-6.4,7.2-6.7c0,0,0,0,0,0
		C417.8,422.8,416.1,424.6,414.4,426.1"/>
	<path class="st0" d="M428.7,413.1c-1.2,1.2-3,3.1-3.3,3.2c0-0.6,6.4-7.2,6.8-7.4C432.2,409.4,428.8,413,428.7,413.1"/>
	<path class="st0" d="M425.8,412c-3.5,3.8-7,6.5-7,5.3c0-1.8,8.8-12,11.4-12.4C431.3,405.2,428.8,408.8,425.8,412"/>
	<path class="st0" d="M450.5,364.9c-1.6,3-3.8,4.9-4.3,3.7c-0.7-1.7,2.7-8.3,4.9-8.6C452.5,360.2,451.6,362.9,450.5,364.9"/>
	<path class="st0" d="M423,398.5c-0.9,1.2-2.1,2-2.2,1.4c-0.1-0.8,1.7-3.2,2.7-3.3C424.2,396.6,423.6,397.7,423,398.5"/>
	<path class="st0" d="M407.8,421.5c-2.9,3-6.1,4.8-6.2,3.7c-0.2-1.7,6.2-8.5,8.9-8.7C411.7,416.5,410.1,419.1,407.8,421.5"/>
	<polyline class="st0" points="445,387.3 445.5,386 446.8,384.6 446.2,386 445,387.3 	"/>
	<path class="st0" d="M436.3,403c-1.4,1.7-3.9,4.4-4.4,4.2c-0.2-0.9,6.5-9.1,7.8-9.4c0,0,0,0,0.1,0C440,398.4,437.8,401.2,436.3,403
		"/>
	<path class="st0" d="M407.1,426.4c-3.5,3.2-7,5.3-6.8,4c0.2-1.6,7.8-9.4,10.6-9.7C412.1,421,409.9,423.9,407.1,426.4"/>
	<path class="st0" d="M412,428.8c-0.1,0.1-1.3,1.2-1.5,1.2c0.1-0.3,2.6-2.5,2.9-2.6C413.4,427.6,412.1,428.8,412,428.8"/>
	<path class="st0" d="M393.7,443.6c-1.3,0.9-2.8,1.9-3.1,2c0-0.4,5.9-4.5,6.3-4.6C396.9,441.3,394.5,443,393.7,443.6"/>
	<path class="st0" d="M374.8,455.7c-2.5,1.5-5.5,3.1-6.2,3.2c0,0,0-0.1,0-0.1c0.8-0.8,11.2-7.1,12.3-7.3c0,0,0,0.1,0,0.1
		C380.3,452.2,377.4,454.1,374.8,455.7"/>
	<path class="st0" d="M358.4,464.8c-1,0.5-2.1,1-2.3,1c0.1-0.1,4.5-2.3,4.8-2.3C360.8,463.6,359.3,464.3,358.4,464.8"/>
	<path class="st0" d="M342.8,470.6c-2,0.8-4.4,1.7-5,1.8c0.3-0.5,9.1-4,9.6-4.1c0,0,0,0,0,0C347.2,468.7,344.9,469.7,342.8,470.6"/>
	<path class="st0" d="M327,476.1c-1.4,0.5-3.1,1-3.5,1.1c0.2-0.3,6.4-2.3,6.8-2.4C330.1,475,327.1,476.1,327,476.1"/>
	<path class="st0" d="M321.2,479c-1.4,0.4-2.7,0.8-4.1,1.1c1.4-0.4,2.9-0.9,4.3-1.2C321.3,478.9,321.3,479,321.2,479"/>
	<path class="st0" d="M330.7,476c-1.5,0.5-2.9,0.9-3.3,1c0.3-0.1,7-2.3,7-2.3C334.3,474.8,332.6,475.4,330.7,476"/>
	<path class="st0" d="M317,480.1c-2.2,0.6-4,1-4.4,1.1c0,0,9.6-2.5,9.7-2.6C322,478.8,319.8,479.4,317,480.1"/>
	<path class="st0" d="M297,484.4c-3.3,0.6-5.8,0.9-6.1,0.9c4.5-0.8,9-1.6,13.5-2.3C304.4,483.1,301.4,483.7,297,484.4"/>
	<path class="st0" d="M485,295.1c-0.5,2.5-1.3,4.8-1.8,4.2c-0.7-0.9,0.4-9.1,1.8-9.5C485.7,290,485.4,293,485,295.1"/>
	<path class="st0" d="M444.2,395c-0.9,1.1-1.8,2.4-2.1,2.7c0-0.3,4.5-5.9,4.5-6C446.4,392,444.7,394.3,444.2,395"/>
	<path class="st0" d="M472,347.3c-0.9,2-2.6,5.7-3.1,6c-0.5-1.2,5.2-13.2,5.8-13.5C475,340.5,472,347.2,472,347.3"/>
	<path class="st0" d="M447.6,386.6c-1.7,2.4-3.3,4.1-3.5,3.6c-0.3-0.7,4.3-7.9,5.7-8.2C450.4,382.2,448.9,384.8,447.6,386.6"/>
	<path class="st0" d="M28.4,214.5c-0.1,0.7-1.2,6.7-1.9,7.8c0,0-0.1,0-0.1,0c-0.5-1.7,2.1-16.7,3-17.3
		C29.9,206,28.4,214.4,28.4,214.5"/>
	<path class="st0" d="M38.2,186.8c-1.1,3.4-2.4,5.8-2.8,5.1c-0.7-1,1.9-11,3.6-11.4C39.8,180.7,39,184.3,38.2,186.8"/>
	<path class="st0" d="M44.4,168.6c-0.7,1.7-1.5,2.9-1.7,2.5c-0.3-0.5,1.4-5.5,2.3-5.7C45.4,165.6,45,167.2,44.4,168.6"/>
	<path class="st0" d="M68.3,134.5c-1.6,2.6-3.5,4.3-3.7,3.3c-0.4-1.5,3.1-7.3,4.8-7.6C70.3,130.4,69.3,132.8,68.3,134.5"/>
	<path class="st0" d="M80.2,107.5c-1.8,2.2-3.5,3.8-3.7,3.4c-0.2-0.7,4.6-7.2,6-7.4C83.1,103.6,81.5,105.9,80.2,107.5"/>
	<path class="st0" d="M96,87.4c-0.5,0.5-5.2,5.1-5.7,4.8c-0.2-0.9,9.4-10.4,10.8-10.6c0,0,0,0,0.1,0c0,0.1,0,0.1-0.3,0.4
		c-0.3,0.3-0.7,0.7-0.7,0.9c0,0,0.1,0,0.1,0C99,84.4,96.7,86.7,96,87.4"/>
	<path class="st0" d="M111.5,91.4c-2,2.3-4.3,3.5-4.4,2.5c-0.1-1.4,3.7-5.6,5.7-5.8C113.9,88.2,112.7,90.1,111.5,91.4"/>
	<path class="st0" d="M131.4,59.8c-1.3,0.9-3.7,2.5-4.1,2.4c0-0.2,0.4-0.6,0.4-0.6c1.4-0.9,2.8-1.8,4.2-2.8c2.7-1.8,2.7-1.8,2.9-1.8
		c0,0,0,0,0,0C134.9,57.4,131.5,59.7,131.4,59.8"/>
	<path class="st0" d="M127.4,74.4c-2.5,2.3-5,3.5-4.9,2.5c0.1-1.4,4.9-5.7,6.9-5.9C130.5,71.1,128.9,73,127.4,74.4"/>
	<path class="st0" d="M154.4,49.3c-1.5,0.9-4.5,2.5-4.8,2.2c-0.1-0.8,6.7-4.7,8.3-4.9c0,0,0.1,0,0.1,0C158,47.2,155,49,154.4,49.3"
		/>
	<path class="st0" d="M166.9,47.1c-0.5,0.2-1.3,0.6-1.8,0.9c-0.3,0.2-0.3,0.1-0.2,0c0.2-0.4,2.2-1.6,2.9-1.7c0.1,0,0.2,0-0.2,0.4
		C167.1,47,166.9,47,166.9,47.1"/>
	<path class="st0" d="M192.7,32.4c-4.5,1.7-7,2.6-7.6,2.5c0,0,0-0.1,0-0.1c1.4-1.4,11.9-5,13.9-5.2c0,0,0.1,0,0.1,0
		C199,29.7,198.9,30,192.7,32.4"/>
	<path class="st0" d="M160.7,55.6c-1-0.1-3.7,1-7.1,3.6c-0.8-1.3,6.2-6.4,9-6.7C164,52.6,161.7,54.7,160.7,55.6L160.7,55.6"/>
	<path class="st0" d="M165.9,48.4c-1.5,1-2.6,1.3-2.6,1.1c0-0.5,3.1-2.4,4-2.4c0.3,0,0.1,0.2-0.4,0.7
		C166.6,47.9,166.3,48.1,165.9,48.4"/>
	<path class="st0" d="M155.3,62.8c-1.3,1.1-3,1.9-3,1.2c0-0.3,0.2-0.4,0.2-0.4c0.6-0.3,2-0.9,3.9-2.3
		C156.3,61.8,155.7,62.5,155.3,62.8"/>
	<path class="st0" d="M207.5,30.6c-2.5,1.1-4.4,1.6-4.2,1.2c0.3-0.6,5.5-2.7,6.9-2.8c0,0,0.1,0,0.1,0
		C210.3,29.3,208.6,30.1,207.5,30.6"/>
	<path class="st0" d="M149.5,58.7c-1.9,1.4-3.7,2.2-3.6,1.5c0.2-0.8,3.9-3.6,5.3-3.7c0.7,0.1-0.5,1.2-1.4,1.9
		C149.6,58.6,149.5,58.7,149.5,58.7"/>
	<path class="st0" d="M148,64.1c-0.8-0.5-3.7,0.7-7.1,3.4c1.6-2.2,5.6-5,7.4-5.1C149,62.4,149,62.9,148,64.1
		C148.1,64.1,148,64.1,148,64.1"/>
	<path class="st0" d="M180,48c-2.6,1.9-5.6,3-5.3,1.9c0.3-1.3,5-4.5,7.2-4.6c1.2,0.1-0.4,1.5-0.9,2C180.7,47.4,180.3,47.7,180,48"/>
	<path class="st0" d="M158.1,60c-4,3.5-8.6,5.4-8.3,3.4c0.4-2.4,7.6-7.6,10.7-7.8c1.5,0.1,0,2.2-2.2,4.2
		C158.2,59.9,158.1,60,158.1,60"/>
	<path class="st0" d="M165.9,75.1c-2.5,3.3-7,4.9-7.2,2.5c-0.1-2.2,3.9-6.3,7-6.4C167.9,71.3,167,73.6,165.9,75.1"/>
	<path class="st0" d="M138.6,96.5c-2.5,3.6-6.8,5.2-7.1,2.6c-0.3-2.4,3.8-7.1,7.1-7.4C140.9,92,139.8,94.8,138.6,96.5"/>
	<path class="st0" d="M122.7,95.8c-1.6,2-3.7,2.9-3.8,1.7c-0.1-1.4,2.5-4.2,4.2-4.4C124.3,93.2,123.5,94.8,122.7,95.8"/>
	<path class="st0" d="M173.4,110.9c-2.5,5.7-10.1,7.9-11.7,3.4c-1.4-3.8,3-10.1,8.5-10.4C174.5,104.1,174.6,108.1,173.4,110.9"/>
	<path class="st0" d="M202,78.6c-1,2-3.9,2.8-4.6,1.2c-0.5-1.3,1.2-3.6,3.3-3.7C202.5,76.2,202.5,77.7,202,78.6"/>
	<path class="st0" d="M174.3,76.8c-2.5,3.5-7.1,5-7.6,2.5c-0.5-2.3,3.6-6.7,7.1-6.9C176.3,72.6,175.4,75.2,174.3,76.8"/>
	<path class="st0" d="M153,78.9c-1.3,1.5-3.2,2.3-3.3,1.3c-0.1-1,1.9-3.2,3.4-3.3C154.2,77,153.6,78.2,153,78.9"/>
	<path class="st0" d="M176.6,57.1c-2.7,2.5-5.7,3.3-5.6,1.9c0.1-1.5,4.2-4.9,6.7-5.1C179.2,54.1,177.8,56,176.6,57.1"/>
	<path class="st0" d="M143.1,67.5l0.5-1l1.8-1l-0.5,1L143.1,67.5 M145,69.1c3-2.8,4.1-5.1,2.6-5.2c-0.1,0-0.2,0-0.3,0
		c-4.8,0.8-12.1,8.4-10.3,9.5C138.1,74.1,141.8,72.1,145,69.1"/>
	<path class="st0" d="M142.2,62.3c-3.6,2.8-7.1,4.5-7.1,3.4c0-1.7,7.9-7.6,10.6-7.8C147.1,58.1,144.3,60.7,142.2,62.3"/>
	<path class="st0" d="M126,70.6c-3.6,3-6.9,4.8-6.8,3.7c0-0.6,0.6-1.6,3-3.3c1.3-1,2.4-2.1,3.7-3.2c0,0,2.8-2,4-2
		C131,65.9,128.2,68.7,126,70.6"/>
	<path class="st0" d="M168.6,38.8c-5.6,2.5-6.1,2.5-6.3,2.6c0,0,0,0,0-0.1c1.2-1.1,11.2-5.3,12.6-5.5
		C174.8,36,174.6,36.2,168.6,38.8"/>
	<path class="st0" d="M123.6,62L123.6,62l1.2-0.8C124.4,61.5,124,61.8,123.6,62"/>
	<path class="st0" d="M88.9,94.9c-0.8,0.8-2.3,2.4-2.6,2.3c-0.1-0.5,3.9-4.8,4.6-5c0,0,0,0,0,0C91,92.5,89.6,94.1,88.9,94.9"/>
	<path class="st0" d="M77.2,106.5c-0.3,0.3-2.5,3-3,3.2c-0.2-0.6,5.3-6.9,5.7-7.1C80.1,103,77.5,106.2,77.2,106.5"/>
	<path class="st0" d="M26.5,280.9c0.1,0.5,0.5,4.9,0.2,5.7c0,0-0.1,0-0.1,0c-0.8-1.2-2-12.3-1.4-12.7
		C25.8,274.6,26.5,280.9,26.5,280.9"/>
	<path class="st0" d="M55.4,281.2c0.2,4.4-1.7,7.2-3.7,5.5c-3.1-2.5-3.9-12.4-0.1-12.9C53.9,274,55.2,278.3,55.4,281.2"/>
	<path class="st0" d="M46.5,233.7c-0.4,3.1-1.9,5.7-3.2,4.2c-1.7-1.9-0.9-9.4,1.6-9.7C46.5,228.4,46.8,231.5,46.5,233.7"/>
	<path class="st0" d="M77.7,245.9c-0.6,6.4-5,9.9-8.1,6.3c-4-4.7-1.7-15.6,3.3-15.7C76.7,236.9,78,242.2,77.7,245.9"/>
	<path class="st0" d="M62.8,179.5c-1,2.9-3,4.4-3.6,2.8c-0.8-1.9,1.1-6.7,3.1-6.9C63.4,175.5,63.4,177.6,62.8,179.5"/>
	<path class="st0" d="M112.2,154.6c-1.6,4-5.7,5.7-6.8,2.9c-1-2.7,1.7-7.8,5.1-8.1C113,149.6,113,152.6,112.2,154.6"/>
	<path class="st0" d="M119.6,140c-1.6,3.5-5.4,5.1-6.4,2.5c-0.9-2.4,1.9-7,5.1-7.2C120.7,135.5,120.3,138.3,119.6,140"/>
	<path class="st0" d="M111.7,125.2c-2.5,4.4-7,6.5-7.9,3.7c-0.9-3,3.4-9.4,7.3-9.7C113.9,119.5,113,123,111.7,125.2"/>
	<polyline class="st0" points="143.1,67.5 143.6,66.5 145.3,65.5 144.8,66.5 143.1,67.5 	"/>
	<path class="st0" d="M115.3,79.5c-2.1,2-4.2,3.2-4.2,2.5c0-1.1,4.7-5.5,6.4-5.7C118.3,76.3,116.7,78.2,115.3,79.5"/>
	<path class="st0" d="M123.7,69.8c-2.7,2.2-5.2,3.7-5.2,3c-0.1-1.2,6.6-6.5,8.4-6.7C127.7,66.1,125.5,68.3,123.7,69.8"/>
	<path class="st0" d="M102.2,81.3c-0.5,0.5-1.9,1.7-2.1,1.6c0-0.4,3.4-3.5,3.9-3.6c0,0,0,0,0,0C104.1,79.5,103,80.6,102.2,81.3"/>
	<path class="st0" d="M131.3,59.3c-1.3,0.9-5.7,3.8-6.3,3.7c0-0.8,10.1-7.6,11.8-7.9c0,0,0,0,0.1,0
		C136.6,55.7,132.9,58.2,131.3,59.3"/>
	<path class="st0" d="M182.6,33.3c-4.1,1.5-6.2,2.3-6.8,2.3c0.6-0.8,12.5-4.8,13.7-5C189.3,30.8,189.3,30.8,182.6,33.3"/>
	<path class="st0" d="M218.9,23c-3.3,0.6-6.1,1.1-7.9,1.5c2.9-0.6,5.8-1.1,8.7-1.6l9-1.3C225.5,22,222.2,22.5,218.9,23"/>
	<path class="st0" d="M164.2,39.3c-1.9,0.8-3.7,1.7-5.6,2.5c0.2-0.1,2.1-1,3.5-1.6l5.4-2.3c2.4-1,3.6-1.5,3.7-1.5
		C168.8,37.5,166.5,38.3,164.2,39.3"/>
	<path class="st0" d="M179.1,33.7c-1,0.4-2,0.7-3,1.1c4.5-1.7,4.5-1.7,4.7-1.8c-0.3,0-2,0.6-3,1c4-1.5,7.2-2.5,7.5-2.5
		c-0.1,0.1-0.1,0.1-0.9,0.3C182.6,32.5,180.8,33.1,179.1,33.7"/>
	<path class="st0" d="M223.6,22.5c-2.2,0.3-4.4,0.8-6.6,1.1c1.2-0.4,11.7-2,14.2-2.2C228.7,21.8,226.2,22.1,223.6,22.5"/>
	<path class="st0" d="M174.6,35.4c-5.3,2-5.3,2-5.5,2.1c0.6-0.5,10.5-4.2,11.7-4.5c-0.1,0-0.1,0.1-0.7,0.3
		C178.2,34,176.4,34.7,174.6,35.4"/>
	<path class="st0" d="M156,44c-4.8,2.4-6,2.9-6.3,3c0.1-0.7,11.8-6.2,13-6.5C162.6,40.6,162.6,40.7,156,44"/>
	<path class="st0" d="M181.1,34.5c-4.4,1.7-4.9,1.8-5.1,1.8c0,0,0,0,0,0c0.8-0.7,8.7-3.7,9.9-3.8C185.9,32.5,185.8,32.6,181.1,34.5"
		/>
	<path class="st0" d="M146.8,51.3c-1.6,1-6.8,4-7.6,3.9c-0.3-0.8,8.2-6.1,12.9-8c-1.6,0.7-4.4,2.3-4.7,2.8c0.8,0,4.9-2.5,5.2-2.9
		c0,0-0.1,0-0.1,0c0.3-0.1,0.6-0.2,0.6-0.2c0,0,0.1,0,0.1,0C153.1,47.5,149.7,49.6,146.8,51.3"/>
	<path class="st0" d="M198,28c-3.9,1.1-4.5,1.2-4.7,1.3c0.9-0.5,9-2.6,9.9-2.7c-0.2,0.1-0.5,0.2-0.7,0.2C201,27.2,199.5,27.6,198,28
		"/>
	<polyline class="st0" points="182.2,35.5 183.3,34.9 184.8,34.4 183.8,34.9 182.2,35.5 	"/>
	<path class="st0" d="M174.4,38.6c-0.5,0.2-3.2,1.5-3.7,1.4c0,0,0,0,0-0.1c0.6-0.7,5.8-2.9,6.7-3c0,0,0,0,0,0
		C177.5,37.2,175.3,38.2,174.4,38.6"/>
	<path class="st0" d="M173.3,36.1c-2.1,0.9-2.3,0.9-2.4,0.9c0.3-0.3,4.6-1.9,4.9-2C175.7,35,175.6,35.1,173.3,36.1"/>
	<path class="st0" d="M150.2,48.7c-0.9,0.5-2.5,1.4-2.8,1.3c0.1-0.5,4.7-2.9,5.2-2.9c0,0,0,0,0,0C152.6,47.3,150.9,48.3,150.2,48.7"
		/>
	<path class="st0" d="M171.1,38.5c-0.6,0.3-2.8,1.2-3,1.2c0.2-0.4,5.1-2.5,5.8-2.6c0,0,0,0,0,0C173.8,37.3,172.1,38.1,171.1,38.5"/>
	<path class="st0" d="M134,61c-1.4,1-2.9,1.8-2.8,1.5c0.1-0.5,3.8-3.3,4.9-3.4C136.4,59.1,135,60.2,134,61"/>
	<path class="st0" d="M163.9,39.7c-4.2,1.9-4.2,1.9-4.6,2c0.7-0.6,9.3-4.2,9.9-4.4C169.1,37.4,169.1,37.4,163.9,39.7"/>
	<path class="st0" d="M129.4,58.5c-3.4,2.2-4.7,3-4.9,3.1c0.5-0.7,9.6-6.5,10.3-6.8C134.6,55,134.5,55.1,129.4,58.5"/>
	<path class="st0" d="M95.5,86.3c-0.4,0.4-2.6,2.5-3,2.7c-0.1-0.5,5.5-5.7,5.9-5.8c0,0,0,0,0,0C98.3,83.6,96.5,85.3,95.5,86.3"/>
	<path class="st0" d="M111,71.9c-1.2,1-2.6,2.1-2.8,2.2c0.3-0.5,5.8-4.8,6.1-4.9C114.1,69.3,113.1,70.2,111,71.9"/>
	<path class="st0" d="M197.3,460.6c1.1,1.2,1.2,2.1,0.3,2.1c-2.2,0-6.6-3.5-5.7-4.5c0.2-0.2,0.4-0.2,0.6-0.2
		C194.2,458.1,196.3,459.7,197.3,460.6"/>
	<path class="st0" d="M211.5,473.3c1.2,0.8,2.1,1.7,1.4,1.8c-1.7,0.3-7.8-3.1-7.3-4c0.1-0.1,0.3-0.2,0.5-0.2c0.1,0,0.2,0,0.2,0
		c-0.7,0.4,2,1.9,3.3,2.3c0.6,0.2,0.7,0.1,0.8,0c0-0.5-1.4-1.3-2.2-1.8C208.5,471.7,209.9,472.3,211.5,473.3"/>
	<path class="st0" d="M174.3,457.6c0.8,0.7,1.4,1.4,0.9,1.5c-1.1,0.2-5.2-2.6-4.7-3.2c0.1-0.1,0.2-0.1,0.2-0.1
		C171.8,455.9,173.5,456.9,174.3,457.6"/>
	<path class="st0" d="M231.6,483.9c1.3,0.4,1.4,0.5,1.5,0.5c0,0,0,0,0,0c-0.5,0-4-0.9-4.3-1.2c0,0,0,0,0,0c0,0,0,0,0,0
		C229.4,483.2,231.3,483.8,231.6,483.9"/>
	<path class="st0" d="M230.5,471.8c0.5,0.7,0.4,1.4-0.6,1.2c-1.4-0.2-3.3-1.9-2.6-2.6c0.6,0.3,1.1,0.3,1.1-0.1
		C229.6,470.7,230.3,471.6,230.5,471.8"/>
	<path class="st0" d="M209.4,472.2c0.7,0.5,1.2,1,0.8,1.1c-1,0.2-4.4-1.9-4-2.3c0.1-0.1,0.2-0.1,0.2-0.1
		C207.1,470.9,208.5,471.6,209.4,472.2"/>
	<path class="st0" d="M224.1,468.4c0.8,1.1,0.5,1.9-0.8,1.7c-2.3-0.4-4.8-3-3.7-3.8c0.2-0.1,0.4-0.2,0.7-0.2
		C222,466.2,223.5,467.5,224.1,468.4"/>
	<path class="st0" d="M226.1,460.2c0.6,1.5-0.4,2.6-2.5,1.8c-2.5-1-3.9-3.8-2.2-4.4c0.2-0.1,0.5-0.1,0.7-0.1
		C224.1,457.6,225.6,459.1,226.1,460.2"/>
	<path class="st0" d="M209.3,459.5c1.5,2.1,1.4,4-1.4,3.5c-4.1-0.8-9.9-6.1-7.6-7.9c0.4-0.3,0.8-0.3,1.3-0.3
		C205,455,208.1,457.8,209.3,459.5"/>
	<path class="st0" d="M170.5,425.8c1.1,2.1,0.1,3.5-2,2.9c-3.4-1-6.2-5.5-4-6.5c0.3-0.1,0.6-0.1,0.8-0.2
		C167.4,422.2,169.6,424.1,170.5,425.8"/>
	<path class="st0" d="M178.4,450.4c0.6,0.7,0.6,1.1,0,1.1c-1.2-0.1-3.1-2-2.5-2.4c0.1,0,0.2-0.1,0.2-0.1
		C176.9,449.1,178,449.8,178.4,450.4"/>
	<path class="st0" d="M199.4,465.5c1.5,1.3,2,2.3,1.2,2.4c-2.3,0.3-9-4.1-8.1-5.4c0.1-0.2,0.4-0.2,0.7-0.2
		C195.1,462.4,198,464.3,199.4,465.5"/>
	<polyline class="st0" points="197.4,442.5 195.9,441.5 196.2,440.5 197.7,441.5 197.4,442.5 	"/>
	<path class="st0" d="M214.7,453.5c1,2.1-0.3,3.4-2.7,2.6c-3.3-1.1-5.6-4.8-3.8-6c0.4-0.2,0.7-0.2,1.1-0.3
		C211.7,450,213.9,451.8,214.7,453.5"/>
	<path class="st0" d="M208.9,468.5c1.4,1.3,2.2,2.6,0.9,2.6c-2.9,0-9.5-4.5-8.4-5.8c0.2-0.2,0.5-0.2,0.8-0.3
		C204.3,465.2,207.4,467.3,208.9,468.5"/>
	<path class="st0" d="M228.2,470c0.3,0.4,0.2,0.8-0.3,0.7c-0.9-0.2-1.7-1.1-1.3-1.4c0.1-0.1,0.2-0.1,0.2-0.1
		C227.3,469.2,227.9,469.6,228.2,470"/>
	<path class="st0" d="M235.9,478c0.6,0.6,0.6,1,0,1c-1.3,0-3.6-1.7-3-2.2c0.1-0.1,0.2-0.1,0.4-0.1
		C234.3,476.8,235.4,477.5,235.9,478"/>
	<path class="st0" d="M241.3,483.4c0.4,0.2,1.8,1,1.4,1.2c-0.8,0.4-6.7-2.1-6.4-2.7c0.1-0.1,0.2-0.1,0.4-0.1
		C238.4,481.8,240.8,483.2,241.3,483.4"/>
	<path class="st0" d="M249.8,486.4c0.2,0.1,0.5,0.2,0.6,0.2c-0.1,0.1-1.9-0.4-1.9-0.6c0,0,0,0,0,0
		C248.8,486.1,249.6,486.4,249.8,486.4"/>
	<path class="st0" d="M253,487.5c0.8,0.1,1.5,0.1,2.3,0.2c-1.9,0-4.9-0.3-5.5-0.5c0,0,0,0,0,0C250.9,487.2,252,487.4,253,487.5"/>
	<path class="st0" d="M257.7,487.7c0.1,0,0.3,0,0.4,0C258,487.7,257.8,487.7,257.7,487.7"/>
	<path class="st0" d="M261,487.2c-0.3,0.1-0.8,0.2-0.8,0.2c0,0,1-0.4,1.3-0.4c0,0,0.1,0,0,0C261.5,487.1,261.4,487.1,261,487.2"/>
	<polyline class="st0" points="257.3,482.6 256.8,482.2 257.3,481.7 257.7,482.2 257.3,482.6 	"/>
	<path class="st0" d="M276.6,481.4c-1.2,0.8-2.9,1.3-2.7,0.7c0.1-0.6,2.1-1.9,3.3-2c0.8,0,0.1,0.7,0,0.8
		C277.1,481.1,276.9,481.2,276.6,481.4"/>
	<path class="st0" d="M278.8,471.3c-1.1,1.5-3.6,2.3-3.8,0.8c-0.2-1,1.2-2.8,3.1-2.8C279.4,469.3,279.5,470.3,278.8,471.3"/>
	<path class="st0" d="M279.1,459.7c-1.5,3.2-6.2,4.6-7.5,1.5c-0.2-0.4-0.2-0.8-0.2-1.1c0.7-0.7,1-1.5,0.8-2.2c1.5-2,3.5-2.3,4.3-2.3
		c0.4,0,0.6,0,1,0.1c0.2,0.9,1,0.9,1.4,0.8C279.1,456.8,279.9,457.9,279.1,459.7"/>
	<path class="st0" d="M311.3,462.3c-1.7,1.6-4.2,2.3-4.2,1.2c0.1-1.1,2.5-3.3,4.4-3.4C312.9,460.2,312.2,461.5,311.3,462.3"/>
	<path class="st0" d="M297.5,435.5c-0.8,1.8-3.7,3.5-5.4,1.9c1.7-1.4,2.5-3.2,2.2-5c0.5-0.2,0.8-0.2,1.2-0.2
		C297.8,432.4,298.1,434.2,297.5,435.5"/>
	<path class="st0" d="M322.2,449.8c-1.8,2.1-5.3,3.3-5.3,1.4c0-1.6,2.7-4.3,5.1-4.4C323.9,446.9,323.2,448.7,322.2,449.8"/>
	<path class="st0" d="M327.2,422.3c-1.8,3.3-6.2,4.4-6.9,1.6c-0.5-2.2,1.9-5.4,5.1-5.6C328.1,418.5,328.1,420.7,327.2,422.3"/>
	<path class="st0" d="M351.8,419c-0.3,0.1-1.1,0.5-1.8,1.4c-0.5,0.1-1-0.6-0.3-1.6c0.1-0.1,0.8-1,1.8-1.1c0.6,0,0.8,0.4,0.5,1.2
		C351.8,418.9,351.8,418.9,351.8,419"/>
	<path class="st0" d="M356.6,391.3c-2.7,5.7-10,7.9-11.8,3.5c-1.7-4,2.6-10.5,8.4-10.8C357.8,384.2,358,388.4,356.6,391.3"/>
	<path class="st0" d="M354.6,430.5c-1.1-0.1-4.1,0.6-7.3,4.2c-2.5-1.5,2.1-7.1,5.7-8c0.2,0,0.5-0.1,0.9-0.1
		C355.5,426.7,356.4,427.9,354.6,430.5C354.7,430.5,354.6,430.5,354.6,430.5"/>
	<path class="st0" d="M352.8,420.9c-1.1,1.6-3.2,2.2-3.4,1c-0.2-1.2,1.6-3,3-3C353.4,418.9,353.4,420,352.8,420.9"/>
	<path class="st0" d="M352.1,438.8c-1.2,1.3-3.1,2.1-3.1,1.1c0-0.1,0-0.1,0-0.2c1.3-0.6,2.6-1.4,3.9-2.5
		C353,437.7,352.5,438.4,352.1,438.8"/>
	<path class="st0" d="M393.8,386.7c-1.9,3.3-5.6,4.8-6.2,2.4c-0.6-2.3,2.3-6.6,5.3-6.8C395.1,382.4,394.8,384.9,393.8,386.7"/>
	<path class="st0" d="M340.2,434.2c-1.5,2-4.2,2.7-4.3,1.2c-0.1-1.3,2-3.6,3.9-3.7C341.3,431.8,341,433.3,340.2,434.2"/>
	<path class="st0" d="M343.5,440.1c-1.6-0.5-4.8,0.9-7.3,3.4c0.5-2.3,3.9-5.1,6.4-5.3C343.6,438.3,344,438.9,343.5,440.1
		C343.5,440.1,343.5,440.1,343.5,440.1"/>
	<path class="st0" d="M376.3,420.3c-2.5,3.1-6.1,4.4-6.3,2.2c-0.1-2,3.4-6.2,6.5-6.4C378.7,416.3,377.6,418.8,376.3,420.3"/>
	<path class="st0" d="M354.4,435.7c-3.2,3.7-8.9,6.1-9,3.1c-0.1-2.8,5.1-8.1,9.1-8.3C356.8,430.6,356.8,432.9,354.4,435.7"/>
	<path class="st0" d="M358.9,450.5c-2.9,2.2-6.1,3.5-6,2.5c0.1-1.3,5.5-5.9,8.2-6.1c1.4,0.1-0.3,2-1.4,2.9
		C359.5,450.1,359.2,450.3,358.9,450.5"/>
	<path class="st0" d="M330.7,465.5c-2.7,1.7-5.7,2.7-5.6,1.9c0.2-1,5.5-4.6,7.9-4.7c1.1,0.1,0,1.1-0.6,1.6
		C332.1,464.6,331.4,465.1,330.7,465.5"/>
	<path class="st0" d="M321.1,465c-1.4,1-3.3,1.7-3.2,1c0.1-0.7,2.7-2.6,4.1-2.7c0.9,0.1-0.2,1.1-0.3,1.2
		C321.5,464.7,321.3,464.9,321.1,465"/>
	<path class="st0" d="M331.3,472.9c-3,1.2-6.9,2.5-7.5,2.5c0,0,0-0.1,0-0.1c0.9-0.8,11.5-5.5,13.6-5.7c0.1,0,0.1,0,0.2,0.1
		C337.4,470.1,334.3,471.6,331.3,472.9"/>
	<path class="st0" d="M372.3,453.3c-1.2,0.8-3,1.8-3.2,1.6c0-0.5,4.6-3.5,5.6-3.6c0,0,0.1,0,0.1,0
		C374.7,451.6,373.2,452.7,372.3,453.3"/>
	<path class="st0" d="M362.8,451.8c-2.9,2.1-6.6,3.8-6.3,2.6c0.4-1.4,6.6-6.1,9.1-6.3c1.5,0.1-1.2,2.5-1.5,2.7
		C363.8,451.1,363.3,451.5,362.8,451.8"/>
	<path class="st0" d="M348.6,453.5c-1.4,1.1-3,1.7-2.9,1.1c0.1-0.7,2.5-2.6,3.8-2.7c0.7,0.1,0,0.9-0.5,1.3
		C348.8,453.3,348.7,453.4,348.6,453.5"/>
	<path class="st0" d="M374.8,432.3c-2.6,2.7-5.9,4-5.8,2.3c0.1-1.7,4.1-5.9,6.9-6.1C377.5,428.7,376.2,430.8,374.8,432.3"/>
	<path class="st0" d="M339.1,443.5l0-1l1.7-1l0,1L339.1,443.5 M342.3,445.1c2.9-3,2.6-5.1,0.4-5.1c-0.1,0-0.2,0-0.4,0
		c-4.9,0.7-10.3,7-8.4,8.8C335.2,449.9,339.4,448,342.3,445.1"/>
	<path class="st0" d="M332.6,438.2c-2.9,3.8-8,5.2-8.4,2.3c-0.4-2.7,3.5-7,7.5-7.2C334.5,433.5,334.3,436,332.6,438.2"/>
	<path class="st0" d="M315.4,446.4c-2.5,3.5-7.6,4.8-8.1,2.1c-0.2-0.9,0-1,0.3-1.2c0.1-0.1,2-1.6,2-3.4c1.5-1.3,3-1.9,4.5-2
		C317.2,441.9,316.7,444.6,315.4,446.4"/>
	<path class="st0" d="M307.7,405.2c-1.6,4.8-8.3,6.3-10.4,2.4c-1.7-3.2,1.1-8,6.2-8.2C307.9,399.5,308.4,403,307.7,405.2"/>
	<path class="st0" d="M259.2,437.9c-0.5,3.6-5.5,4.8-7.9,1.8c-0.1-0.1-0.2-0.3-0.3-0.5c0.9-1.1,0.8-2.4-0.3-3.4
		c0.7-1.5,2.1-2.3,4-2.4C258.4,433.7,259.4,436.3,259.2,437.9"/>
	<path class="st0" d="M277.4,464.5c-0.7,1.4-2.7,1.8-3.1,0.7c-0.3-0.9,0.7-2.3,2.1-2.3C277.7,462.9,277.7,463.9,277.4,464.5"/>
	<path class="st0" d="M269.2,470.8c-0.7,1.7-3.1,2.1-3.6,0.6c-0.4-1.1,0.7-2.5,2.3-2.6C269.3,468.9,269.6,469.9,269.2,470.8"/>
	<path class="st0" d="M249.4,473.1l-0.9-0.7c-0.1-0.4,0.1-0.7,0.5-0.7c0.4,0,0.8,0.3,0.9,0.7C249.8,472.6,249.6,472.9,249.4,473.1"
		/>
	<path class="st0" d="M256.3,486.6c0.1,0.2,0,0.4-0.3,0.2c-0.4-0.1-0.7-0.5-0.5-0.6c0,0,0.1,0,0.1,0
		C256,486.2,256.3,486.5,256.3,486.6"/>
	<path class="st0" d="M259.2,487.7c-0.5,0-1,0-1.5,0c1.2,0,2.5-0.1,3.7-0.1C261.2,487.6,260.3,487.7,259.2,487.7"/>
	<path class="st0" d="M280.5,485.7c-1.8,0.3-3.6,0.6-4,0.6c0.2-0.1,7.3-1.4,7.7-1.5c0,0,0,0,0,0C284.2,485,282.2,485.4,280.5,485.7"
		/>
	<path class="st0" d="M293.3,482.8c-1.6,0.4-3.6,0.9-3.9,0.9c0.1-0.2,6.3-2,7.2-2.1c0,0,0,0,0.1,0c0,0,0,0,0,0
		C296.3,481.9,294.7,482.4,293.3,482.8"/>
	<path class="st0" d="M301.5,478.5c-2.3,1-5.3,1.9-5.4,1.5c0.2-0.6,6.7-3.6,8.6-3.7c0.2,0,0.5,0,0.1,0.5
		C304.5,477,303.7,477.6,301.5,478.5"/>
	<polyline class="st0" points="339.1,443.5 339.1,442.5 340.8,441.5 340.7,442.5 339.1,443.5 	"/>
	<path class="st0" d="M308.4,453.9c-1.6,2-4.5,2.8-4.8,1.2c-0.2-1.3,1.8-3.7,4.3-3.9C309.4,451.4,309.3,452.7,308.4,453.9"/>
	<path class="st0" d="M309,445.6c-1.8,2.9-6.1,3.9-6.5,1.5c-0.3-1.8,1.9-4.8,5.1-5C309.8,442.2,310.1,444,309,445.6"/>
	<path class="st0" d="M280.3,455.3c-0.5,1.1-2.3,1.7-2.8,0.6c-0.4-0.8,0.5-2.1,1.8-2.2C280.4,453.8,280.6,454.7,280.3,455.3"/>
	<path class="st0" d="M294,434.9c-1.6,4.1-7.6,5.5-9.2,2.1c-1.2-2.5,0.9-6.9,5.7-7.2C294.3,429.9,294.8,432.9,294,434.9"/>
	<path class="st0" d="M313.2,393.5c-1.7,5.4-9.2,7.1-11.6,2.7c-1.9-3.6,1.3-9,6.8-9.3C313.2,387.1,314.1,390.9,313.2,393.5"/>
	<path class="st0" d="M255.3,414.7c-0.5,5.3-7.9,6.9-11.5,2.6c-2.6-3.2-1.5-8.8,4.8-9C253.7,408.5,255.6,412.2,255.3,414.7"/>
	<path class="st0" d="M251.4,397c-0.3,3.8-5.7,5.1-8.3,1.9c-1.8-2.3-1-6.3,3.5-6.5C250.1,392.6,251.5,395.2,251.4,397"/>
	<path class="st0" d="M268,359.6c-1,7.2-11.1,9.5-15.6,3.5c-3.7-4.8-0.7-11.8,7.1-12.2C266.5,351.3,268.4,356.4,268,359.6"/>
	<path class="st0" d="M234.9,357.9c-0.2,2.8-3.9,3.9-6,1.7c-1-1-1.7-3.1,0.4-4.7c1,0.5,2.5,0.9,4.4,0.4
		C234.1,355.6,235,356.4,234.9,357.9"/>
	<path class="st0" d="M216.9,377.4c0,1.8-2.2,2.4-3.6,1.1c-1.1-1.1-0.9-3.1,1.2-3.2C216.1,375.4,216.9,376.5,216.9,377.4"/>
	<polyline class="st0" points="252.3,346.8 250.8,345.4 252.3,343.9 253.9,345.4 252.3,346.8 	"/>
	<path class="st0" d="M180.4,369c0.4,3.4-3.2,4.9-6.1,2.5c-2.9-2.5-2.5-6.6,0.8-7c0.1,0,0.3,0,0.4,0
		C178.7,364.7,180.2,367.4,180.4,369"/>
	<path class="st0" d="M227.9,401.2c0.1,1.8-2.2,2.2-3.4,1c-1.2-1.1-0.8-3,1.1-3.1C227.3,399.2,227.9,400.4,227.9,401.2"/>
	<path class="st0" d="M221.3,356.5c0,2.1-2.8,2.9-4.3,1.3c-1.4-1.4-0.8-3.7,1.6-3.9C220.3,354,221.3,355.3,221.3,356.5"/>
	<path class="st0" d="M237.8,350.5c-0.2,4.9-6.7,6.8-10.3,3c-3.2-3.3-1.5-8.7,4.1-9C236.3,344.7,237.9,348.3,237.8,350.5"/>
	<path class="st0" d="M253.9,384.1c-0.4,4.4-6.9,5.8-9.8,2.2c-2.2-2.7-1-7.4,4.2-7.7C252.5,378.9,254.1,382,253.9,384.1"/>
	<path class="st0" d="M270.2,406.1c-0.8,4.6-7.4,6.1-10.3,2.3c-2.3-3.1-0.2-7.8,4.9-8C269.4,400.6,270.6,404,270.2,406.1"/>
	<path class="st0" d="M288.6,394.5c-0.3,1.2-0.9,2.1-1.2,2.4c-0.5-4.8-6.5-5.4-9.3-2.1c-0.1,0.1-0.1,0.2-0.2,0.3
		c-0.4-2.8,1.8-5.9,5.9-6.1C287.6,389.2,289.1,392,288.6,394.5"/>
	<path class="st0" d="M316.3,356.6c-1.4,5.9-9.5,7.8-12.3,2.9c-2.3-3.9,0.8-9.8,6.7-10.1C315.7,349.7,317,353.8,316.3,356.6"/>
	<path class="st0" d="M287.3,398.2c-1,4.4-7.4,5.9-9.8,2.2c-1.9-3,0.5-7.5,5.1-7.7C286.6,393,287.8,396.1,287.3,398.2"/>
	<path class="st0" d="M292.5,414.2c-1.4,4.8-8.3,6.3-10.6,2.4c-1.9-3.2,0.7-8,6-8.2C292.2,408.5,293.2,411.9,292.5,414.2"/>
	<path class="st0" d="M323.6,396.2c-1.5,4-7,5.3-8.4,2c-1.2-2.6,1.4-6.6,5.3-6.8C323.8,391.5,324.3,394.3,323.6,396.2"/>
	<path class="st0" d="M311.5,425.1c-2.4,5.2-9.5,6.8-11.2,2.6c-1.1-2.7,0.7-6.7,5.1-8.4c-2.2,1-2.3,3.3-1,3.9
		c1.8,0.8,4.3-1.4,3.6-3.2c-0.3-0.9-1.4-1-2.1-0.9c0.7-0.2,1.2-0.3,1.9-0.3C312.3,419,312.7,422.6,311.5,425.1"/>
	<path class="st0" d="M308.7,379.3c-1.1,3.9-6.6,5.2-8.5,2c-1.5-2.6,0.6-6.6,4.7-6.8C308.4,374.6,309.3,377.4,308.7,379.3"/>
	<polyline class="st0" points="341.2,398.4 340.4,397.2 342,396 342.8,397.2 341.2,398.4 	"/>
	<path class="st0" d="M335.5,404.8c-1.3,2.8-5,3.7-5.7,1.4c-0.6-1.8,1.4-4.6,4-4.7C336.1,401.6,336.1,403.6,335.5,404.8"/>
	<path class="st0" d="M291.5,399.6c-0.5,2-3.3,2.6-4.2,1c-0.7-1.2,0.1-3.2,2.3-3.3C291.2,397.4,291.8,398.6,291.5,399.6"/>
	<path class="st0" d="M308,421.3c-0.8,1.9-3.6,2.6-4.2,1c-0.5-1.3,0.9-3.3,2.8-3.3C308.3,419.1,308.3,420.4,308,421.3"/>
	<path class="st0" d="M318.7,404.5c-0.9,2.3-4.1,3-4.9,1.1c-0.7-1.5,0.8-3.8,3.1-3.9C318.7,401.8,319.2,403.2,318.7,404.5"/>
	<path class="st0" d="M311.5,436.8c-0.9,1.6-3.5,2.4-3.8,0.9c-0.3-1.1,1.2-2.9,2.9-3C312,434.7,312,435.9,311.5,436.8"/>
	<path class="st0" d="M279.1,406.7c-0.8,3.7-6.1,4.9-8.2,1.8c-1.6-2.5,0.1-6.2,4.1-6.4C278.7,402.3,279.5,405,279.1,406.7"/>
	<path class="st0" d="M273.8,434c-0.9,3.7-5.9,4.8-8,1.8c-1.6-2.4,0.1-6,4.1-6.2C273.1,429.8,274.2,432,273.8,434"/>
	<path class="st0" d="M272.1,459c-0.6,1.9-3.3,2.5-4.2,0.9c-0.7-1.2,0.4-3,2.4-3.1C271.9,456.8,272.5,457.9,272.1,459"/>
	<path class="st0" d="M268.8,447.5c-0.5,2-3.4,2.6-4.5,1c-0.8-1.2,0-3.4,2.4-3.5C268.6,445.1,269,446.6,268.8,447.5"/>
	<path class="st0" d="M251.6,437.9c-0.1,2.3-3.3,3.1-5,1.2c-1.3-1.5-0.6-3.8,2-3.9C250.7,435.2,251.6,436.8,251.6,437.9"/>
	<path class="st0" d="M239.8,411.1c0,2-2.8,2.8-4.4,1.2c-1.4-1.4-0.9-3.8,1.5-3.9C239,408.5,239.8,410.1,239.8,411.1"/>
	<path class="st0" d="M225.1,448c0.4,1.6-1.2,2.4-2.9,1.4c-1.9-1.1-2.2-3.3-0.5-3.7c0.1,0,0.3,0,0.4,0
		C223.8,445.7,224.9,447.1,225.1,448"/>
	<path class="st0" d="M211.3,412.1c0.6,4-3.9,6.4-8.4,3.2c-4-2.9-3.9-8.2,0.2-9.1c0.3-0.1,0.8-0.1,1.1-0.1
		C208.5,406.3,211,409.8,211.3,412.1"/>
	<path class="st0" d="M204.2,442c0.9,2.1-0.6,3.3-2.9,2.3c-3-1.3-4.6-4.7-2.5-5.5c0.3-0.1,0.6-0.1,0.8-0.1
		C201.6,438.8,203.6,440.4,204.2,442"/>
</g>
</svg>
